<svg width="177" height="56" viewBox="0 0 177 56" xmlns="http://www.w3.org/2000/svg" preserveAspectRatio="xMinYMid meet"><g id="Page-1" fill="none" fill-rule="evenodd"><g id="logo"><path d="M52.203 3.395v10.84l-18.39 18.26c-1.404 1.41-3.348 2.29-5.5 2.303-4.306.026-7.817-3.427-7.843-7.71-.012-2.14.848-4.084 2.252-5.495l18.23-18.198h11.25" id="Fill-1" fill="#DB322A"/><path d="M38.173 36.576c-.027.027-.058.05-.085.078-2.516 2.822-6.17 4.62-10.258 4.646-7.637.044-13.864-6.076-13.91-13.672-.023-4.068 1.74-7.724 4.55-10.258.026-.027.048-.058.075-.085L34.782.943c-2.298-.6-4.71-.917-7.2-.903C12.313.13.003 12.518.093 27.71.185 42.9 12.64 55.14 27.913 55.05c15.273-.088 27.58-12.476 27.49-27.667-.015-2.476-.363-4.87-.993-7.148l-16.237 16.34" id="Fill-2" fill="#fff"/><path d="M66.983 55.043V51.42h-1.95v3.623H63.82V50.37h4.375v4.673h-1.212" id="Fill-3" fill="#fff"/><path d="M69.587 55.043V50.37h2.353c1.057 0 1.635.707 1.635 1.555 0 .84-.578 1.55-1.635 1.55H70.8v1.568h-1.213zm2.755-3.118c0-.322-.24-.504-.564-.504h-.98v1.003h.98c.324 0 .564-.182.564-.498z" id="Fill-4" fill="#fff"/><path d="M74.47 52.71c0-1.422 1.08-2.417 2.516-2.417 1.437 0 2.508.995 2.508 2.417 0 1.422-1.07 2.417-2.508 2.417-1.437 0-2.515-.995-2.515-2.417zm3.79 0c0-.764-.5-1.352-1.274-1.352-.782 0-1.282.588-1.282 1.352 0 .757.5 1.352 1.282 1.352.775 0 1.275-.595 1.275-1.352z" id="Fill-5" fill="#fff"/><path d="M84.755 55.043v-3.04l-1.19 3.04h-.536l-1.185-3.04v3.04h-1.21V50.37h1.682l.98 2.536.986-2.536h1.684v4.673h-1.212" id="Fill-6" fill="#fff"/><path d="M88.576 50.37v1.57h1.142c1.056 0 1.634.707 1.634 1.548 0 .848-.578 1.555-1.634 1.555h-2.354V50.37h1.212zm0 2.62v1.002h.98c.323 0 .563-.182.563-.504 0-.316-.24-.498-.564-.498h-.98zm3.12-2.62h1.213v4.673h-1.213V50.37z" id="Fill-7" fill="#fff"/><path d="M100.626 50.37v4.673h-6.32V50.37h1.212v3.622h1.346V50.37h1.212v3.622h1.34V50.37h1.21" id="Fill-8" fill="#fff"/><path d="M101.694 54.062c.436 0 .718-.26.852-1.324l.282-2.368h3.5v4.673h-1.21V51.42h-1.198l-.17 1.41c-.225 1.89-1.028 2.297-2.056 2.297v-1.065" id="Fill-9" fill="#fff"/><path d="M107.723 55.043V50.37h3.445v1.05h-2.233v.73h2.183v1.05h-2.183v.792h2.233v1.05h-3.445" id="Fill-10" fill="#fff"/><path d="M115.636 55.043v-1.878h-1.952v1.878h-1.212V50.37h1.212v1.744h1.952V50.37h1.212v4.673h-1.212" id="Fill-11" fill="#fff"/><path d="M121.405 55.043v-1.878h-1.952v1.878h-1.21V50.37h1.21v1.744h1.952V50.37h1.212v4.673h-1.212" id="Fill-12" fill="#fff"/><path d="M125.223 50.37v1.57h1.14c1.058 0 1.635.707 1.635 1.548 0 .848-.577 1.555-1.634 1.555h-2.353V50.37h1.213zm0 2.62v1.002h.98c.323 0 .563-.182.563-.504 0-.316-.24-.498-.564-.498h-.98zm3.12-2.62h1.213v4.673h-1.212V50.37z" id="Fill-13" fill="#fff"/><path d="M130.954 55.043V50.37h1.21v2.753l1.903-2.753h1.254v4.673h-1.217v-2.886l-1.98 2.886h-1.17zm2.183-4.87c-.5 0-.95-.237-1.24-.616l.465-.378c.176.236.437.405.775.405.324 0 .592-.147.768-.406l.465.377c-.282.38-.726.617-1.233.617z" id="Fill-14" fill="#fff"/><path d="M142.15 55.043l-1.022-1.57-1.02 1.57h-1.44l1.643-2.396-1.535-2.277h1.43l.923 1.464.91-1.464h1.437l-1.53 2.27 1.634 2.403h-1.43" id="Fill-15" fill="#fff"/><path d="M144.013 52.71c0-1.422 1.077-2.417 2.514-2.417 1.437 0 2.508.995 2.508 2.417 0 1.422-1.07 2.417-2.508 2.417-1.437 0-2.514-.995-2.514-2.417zm3.79 0c0-.764-.5-1.352-1.276-1.352-.782 0-1.28.588-1.28 1.352 0 .757.498 1.352 1.28 1.352.776 0 1.275-.595 1.275-1.352z" id="Fill-16" fill="#fff"/><path d="M149.828 54.062c.436 0 .718-.26.852-1.324l.282-2.368h3.5v4.673h-1.21V51.42h-1.198l-.17 1.41c-.225 1.89-1.028 2.297-2.056 2.297v-1.065" id="Fill-17" fill="#fff"/><path d="M155.522 54.062c.45-.07.72-.26.853-1.324l.282-2.368h3.5v3.622h.424v1.914h-1.218v-.863h-2.628v.863h-1.212v-1.844zm1.544-.07h1.88v-2.57h-1.197l-.17 1.407c-.064.525-.247.896-.514 1.162z" id="Fill-18" fill="#fff"/><path d="M161.715 55.043V50.37h1.212v2.753l1.902-2.753h1.253v4.673h-1.22v-2.886l-1.978 2.886h-1.17" id="Fill-19" fill="#fff"/><path d="M170.64 55.043v-1.878h-1.95v1.878h-1.213V50.37h1.212v1.744h1.95V50.37h1.212v4.673h-1.212" id="Fill-20" fill="#fff"/><path d="M173.246 55.043V50.37h3.445v1.05h-2.232v3.623h-1.212" id="Fill-21" fill="#fff"/><path d="M85.96 11.857V44.44H75.445V11.856H63.82V3.393h33.765v8.464H85.96" id="Fill-22" fill="#fff"/><path d="M170.13 33.572c-.66.58-1.524 1.074-2.732 1.707-1.474.773-3.198 1.16-5.174 1.16-1.705 0-3.275-.31-4.708-.93-1.435-.617-2.665-1.477-3.69-2.58-1.03-1.1-1.833-2.424-2.414-3.97-.582-1.546-.872-3.247-.872-5.102 0-1.816.29-3.487.872-5.015.58-1.526 1.395-2.85 2.44-3.97 1.047-1.12 2.298-2 3.75-2.64 1.454-.636 3.053-.955 4.797-.955 1.588 0 3.138.31 4.65.927 1.326.543 2.182 1.122 3.08 1.727l6.467-6.49c-1.612-1.542-3.6-2.75-5.974-3.614-2.81-1.024-5.667-1.537-8.574-1.537-3.14 0-6.066.504-8.778 1.51-2.713 1.004-5.077 2.443-7.09 4.318-2.017 1.875-3.597 4.145-4.74 6.812-1.143 2.667-1.714 5.643-1.714 8.928 0 3.21.56 6.145 1.685 8.812 1.124 2.667 2.675 4.957 4.65 6.87 1.977 1.914 4.312 3.392 7.005 4.436 2.694 1.043 5.63 1.565 8.807 1.565 3.488 0 6.57-.608 9.243-1.826 2.107-.96 3.945-2.192 5.522-3.692l-6.51-6.45" id="Fill-23" fill="#fff"/><path d="M123.16 23.88l20.41-20.487H130.64L112.626 21.31V3.392h-10.512V44.44h10.512V26.427l18.363 17.938h12.93L123.16 23.88" id="Fill-24" fill="#fff"/></g></g></svg>