<svg width="175" height="56" viewBox="0 0 175 56" xmlns="http://www.w3.org/2000/svg"><g id="Page-1" fill="none" fill-rule="evenodd"><g id="Desktop-HD" transform="translate(-633 -553)"><g id="logo-en" transform="translate(633 553)"><path d="M51.866 4.316v10.79l-18.15 18.183c-1.382 1.407-3.303 2.28-5.427 2.293-4.252.025-7.715-3.414-7.743-7.676-.01-2.133.84-4.068 2.223-5.475L40.762 4.316h11.104" id="Fill-1" fill="#DB322A"/><path d="M38.018 37.352c-.027.03-.056.05-.08.08-2.485 2.81-6.092 4.602-10.123 4.625-7.54.044-13.683-6.05-13.73-13.613-.022-4.05 1.72-7.692 4.492-10.216.025-.027.047-.055.07-.084L34.674 1.872c-2.27-.598-4.645-.914-7.103-.9C12.495 1.064.354 13.398.44 28.526.53 43.65 12.818 55.84 27.892 55.75c15.076-.087 27.222-12.425 27.13-27.55-.014-2.464-.36-4.85-.98-7.117l-16.024 16.27" id="Fill-2" fill="#fff"/><path d="M85.178 12.74v32.444H74.802V12.74H63.33V4.31h33.318v8.43h-11.47" id="Fill-3" fill="#fff"/><path d="M168.242 34.362c-.653.576-1.504 1.07-2.696 1.7-1.456.77-3.157 1.155-5.105 1.155-1.682 0-3.232-.307-4.646-.924-1.416-.616-2.63-1.47-3.644-2.57-1.012-1.095-1.807-2.413-2.382-3.954-.572-1.54-.858-3.235-.858-5.08 0-1.81.286-3.474.858-4.995.575-1.522 1.38-2.836 2.412-3.954 1.03-1.115 2.264-1.99 3.7-2.627 1.432-.634 3.012-.95 4.732-.95 1.57 0 3.097.307 4.59.924 1.308.54 2.155 1.118 3.04 1.717l6.38-6.463c-1.588-1.535-3.55-2.735-5.894-3.597-2.773-1.018-5.592-1.528-8.462-1.528-3.096 0-5.982.5-8.66 1.5-2.678 1.002-5.01 2.434-6.998 4.3-1.99 1.868-3.552 4.128-4.68 6.785-1.123 2.653-1.69 5.62-1.69 8.89 0 3.194.56 6.12 1.664 8.774 1.107 2.657 2.642 4.938 4.59 6.84 1.95 1.905 4.253 3.377 6.912 4.417 2.656 1.042 5.555 1.563 8.69 1.563 3.444 0 6.483-.61 9.122-1.82 2.08-.957 3.896-2.183 5.452-3.677l-6.426-6.424" id="Fill-4" fill="#fff"/><path d="M121.89 24.71l20.142-20.4H129.27l-17.773 17.843V4.31H101.12v40.876h10.377V27.25l18.12 17.863h12.762L121.89 24.71" id="Fill-5" fill="#fff"/><path d="M63.297 49.812h1.523v5.918h-1.523v-5.918z" id="Fill-6" fill="#fff"/><path d="M70.997 55.73l-2.493-3.425v3.424h-1.52v-5.92h1.563l2.386 3.258V49.81h1.532v5.92h-1.468" id="Fill-7" fill="#fff"/><path d="M78.754 52.763c0-.908-.548-1.62-1.625-1.62h-.968v3.253h.957c1.034 0 1.634-.752 1.634-1.633m-4.11 2.966v-5.92h2.475c1.854 0 3.19 1.12 3.19 2.953 0 1.84-1.336 2.966-3.18 2.966h-2.486" id="Fill-8" fill="#fff"/><path d="M82.127 53.334v-3.522h1.542v3.47c0 .7.416 1.207 1.25 1.207.815 0 1.235-.507 1.235-1.207v-3.47h1.54v3.514c0 1.47-.892 2.51-2.776 2.51-1.9 0-2.793-1.047-2.793-2.503" id="Fill-9" fill="#fff"/><path d="M89.382 54.895l.808-1.143c.423.424 1.078.78 1.88.78.523 0 .842-.204.842-.488 0-.807-3.344-.16-3.344-2.44 0-.99.84-1.88 2.353-1.88.944 0 1.767.283 2.395.825l-.83 1.09c-.497-.41-1.142-.61-1.724-.61-.442 0-.633.177-.633.423 0 .754 3.33.204 3.33 2.405 0 1.187-.876 1.978-2.456 1.978-1.194 0-2.025-.372-2.618-.94" id="Fill-10" fill="#fff"/><path d="M97.527 55.73v-4.587h-1.65V49.81h4.815v1.333h-1.645v4.586h-1.52" id="Fill-11" fill="#fff"/><path d="M105.807 51.775c0-.403-.335-.632-.73-.632h-1.207v1.27h1.206c.396 0 .73-.224.73-.638m-.166 3.954l-.987-1.988h-.783v1.987h-1.517v-5.92h2.95c1.31 0 2.053.87 2.053 1.972 0 1.03-.628 1.576-1.177 1.772l1.2 2.175h-1.74" id="Fill-12" fill="#fff"/><path d="M109.29 49.812h1.518v5.918h-1.517v-5.918z" id="Fill-13" fill="#fff"/><path d="M115.495 51.32l-.752 2.226h1.5l-.748-2.227zm1.457 4.41l-.292-.853h-2.32l-.297.852h-1.722l2.218-5.92h1.91l2.227 5.92h-1.723z" id="Fill-14" fill="#fff"/><path d="M120.2 55.73v-5.92h1.518v4.586h2.37v1.333H120.2" id="Fill-15" fill="#fff"/><path d="M133.317 55.73v-2.38h-2.445v2.38h-1.525v-5.92h1.525v2.21h2.445v-2.21h1.523v5.92h-1.523" id="Fill-16" fill="#fff"/><path d="M141.446 52.776c0-.966-.63-1.713-1.6-1.713-.978 0-1.607.747-1.607 1.713 0 .957.628 1.713 1.607 1.713.97 0 1.6-.757 1.6-1.714m-4.76 0c0-1.8 1.355-3.06 3.16-3.06 1.8 0 3.146 1.26 3.146 3.06s-1.347 3.06-3.146 3.06c-1.805 0-3.16-1.26-3.16-3.06" id="Fill-17" fill="#fff"/><path d="M144.856 55.73v-5.92h1.52v4.586h2.366v1.333h-3.886" id="Fill-18" fill="#fff"/><path d="M154.54 52.763c0-.908-.548-1.62-1.627-1.62h-.964v3.253h.953c1.04 0 1.638-.752 1.638-1.633m-4.11 2.966v-5.92h2.473c1.857 0 3.194 1.12 3.194 2.953 0 1.84-1.337 2.966-3.184 2.966h-2.483" id="Fill-19" fill="#fff"/><path d="M157.96 49.812h1.522v5.918h-1.523v-5.918z" id="Fill-20" fill="#fff"/><path d="M165.662 55.73l-2.494-3.425v3.424h-1.523v-5.92h1.568l2.38 3.258V49.81h1.535v5.92h-1.466" id="Fill-21" fill="#fff"/><path d="M168.983 52.776c0-1.88 1.43-3.06 3.192-3.06 1.312 0 2.11.7 2.516 1.436l-1.27.667c-.223-.393-.675-.757-1.245-.757-.965 0-1.648.747-1.648 1.713 0 .966.683 1.713 1.648 1.713.432 0 .873-.18 1.084-.358v-.46h-1.326v-1.34h2.847v2.35c-.636.702-1.496 1.155-2.605 1.155-1.762 0-3.192-1.18-3.192-3.06" id="Fill-22" fill="#fff"/></g></g></g></svg>