<svg xmlns="http://www.w3.org/2000/svg" viewBox="0 0 357.8 380" enable-background="new 0 0 357.8 380"><g id="Layer_0_xA0_Image_copy"><circle fill="#fff" cx="175.9" cy="179.4" r="133.4"/><path fill="#fff" d="M176.7 42.6c-75.3 0-136.3 61-136.3 136.3s61 136.3 136.3 136.3c75.2 0 136.3-61 136.3-136.3S251.9 42.6 176.7 42.6zm83.6 176.7l-2.6-1.1-11.1 7.5-15.1 2.1-7 3.3 10.9 26.7-39.2 21.2-5.5-7.5-16.5 3.5-29.2-21.8-12.3-2.6-32.3-19-4.5-.3-.5-2.3-4.3-1-1.5-5.5-7.8-4.3-6.5-7.8 8.3-9-2.5-3.5 6.8-9 13.5-36.5 4.8-1.3 8.5-17.8-4.3-8.3 30.2 2.5 5.8-.8 6.5-16.5 15.2 4.1 6.2-.8 20.1-11.8 5.3-1.4L210 87l35.1 9.8 8.8 2.2-2.3 10.8-.7 15.8 12.2 3 11.5 2.7 2 2.3-3 3 3.3 7.5-.5 5.5 5.6 3.7-7 3.3 3.6 10.9 4.2 4.8-5.8 10.8-8 3.9-8.7 32.3z"/><path fill="#002D59" d="M176.7 28.5c-83 0-150.3 67.3-150.3 150.3 0 83 67.3 150.3 150.3 150.3 83 0 150.3-67.3 150.3-150.3 0-82.9-67.3-150.3-150.3-150.3zm128.1 140.8l-5.5 5.7-2.7-1.4-6.6 12.6-13 23.6-5.3 18.7-4.1-2.7-13.1 10.3.3 8.3-2.2 2.1-.5 8 7.9 6.7 9.4-4.1 15.5 22.3.8 2.5-18.3-20.2-8.2 3.8-10.7-9.9.3-9.3 1.9-3-.5-6-4.8 28.5-16.4 11.7-30.3 14.7-.8 4.1 7.7-.8-1.4 12.3 7.4 7.4-10.1-4.9 1.4-12-7.1 1.9-.8-6.3-8.8-10.7-17.5 4.4-30.8-23.8-14.3-1.4-46.5-24.7-1.2-8.9-7.7-3.3-5.2 3.8 3.6 4.7v2.5l-5.5-6.8 4.9-4.4.3-4.7-5.2-5.7-5.7-2.5-3 3.8v2.7l-5.7-.3 3.6-1.1 3-5.7-3.3-2.5-3.8 1.6 4.7-3.8 4.1 4.1 6.8.8 7.7-8.8-3.8-4.9 7.4-9.9 14.8-40.5 5.7-.5 9.3-18.3-5.9-10 23.3.8 16.4 1.6s7.4-16.4 8.8-17.5c1.4-1.1 23.5 0 24.9 0 1.4 0 18.9-9.9 18.9-9.9l10.4-2.6 31.7-18.2 23.8 14.5 6 3.8-2.5 11.8s4.1 1.9 6.6 4.4l5.7-5.2 2.7 3.3 7.4-3.8 2.2 2-8.8 6.4-3-1.6-9 10.4 9.8 2.2 5.2.5 6.3 1.6 3.3-.5 2.7-5.5-2.2-1.6 4.7-4.1-3.3-5.5 7.7-10.9.9 7.2-5.2 3.9 3.6 5.7-3.9 3.6 1 2.4-3.4 7.1-.3 4.6-2.2 3.6 2.2 8.2-.3 4.1 6.3 3.8 9-5.2 11.7 10.6v5.2l-12-11.6-15.1 7.8 2.5 6.8 7.4 7.4 6.3-7.1 6.3 13.7 10.9-4.7-.8 4.2-10.9 4.4-5.9-11.9z"/><path fill="#fff" d="M77.2 198.5l2 2.8 2.2.2-2-2.7zM70.9 211.8l3-.8 4.8 5.5-3 .5zM79.7 221.5l2.7-1 5.3 2.3-2.8 1zM85.9 233l4.8-3.5 3.2.5-4.2 3.3zM228.9 230.3l3.5-2.2 13-.5-2.2 2.4z"/><path fill="#002D59" d="M265.6 229.7l14.3 3.7 8.5-25.5-24 4.7-9.6-4.1-6.2 3.1-3.8 4.9 4.6 11.9 9.7 2.8 6.5-1.5-.1-.1zM178.9 357.8C80.2 357.8 0 277.5 0 178.9 0 80.2 80.2 0 178.9 0c98.6 0 178.9 80.2 178.9 178.9 0 98.6-80.3 178.9-178.9 178.9zm0-316.7c-76 0-137.8 61.8-137.8 137.8 0 76 61.8 137.8 137.8 137.8 76 0 137.8-61.8 137.8-137.8-.1-76-61.9-137.8-137.8-137.8z"/><path fill="#fff" d="M178.9 18.8c-88.4 0-160.1 71.7-160.1 160.1S90.5 339 178.9 339c88.4 0 160.1-71.7 160.1-160.1S267.3 18.8 178.9 18.8zm-.1 297.3c-75.9 0-137.5-61.6-137.5-137.5S102.8 41.1 178.8 41.1c75.9 0 137.5 61.5 137.5 137.5-.1 76-61.6 137.5-137.5 137.5z"/><path fill="#002D59" d="M283.9 100.8l-4.4-2.4.5-6.3-11.9-3-2.1-7.4-11.9 1.4-7.1-1.9-2.7 6.1-3 3.9.1.6-4.2 1.1-3.1 9.2 3.7 7.9 1.2 7.3 7.5-.3 8.2-2.2 4.9 2 3.1 2.6 9.4-3 6.3-.6 1-5.2 3.6-2.9z"/><path fill="#fff" d="M274.6 108.5l1.7-1.4-3.4-2.3 1.8-4.3-11.1-3.5-.9-3.8-9.7.4-5.6-2.4-1.7 2.2.5 5.8-.3 3.7-5.5.9 2.2 4.8.8 4.7 4.6-.2 7.4-2 5.1 2.2 2 1.6 7.4-2.3 4-.4zM253.1 90.8l2.1-6 9.3-1.1-1.9 6.7zM266.4 94.7l10.9 3.7.7-4.8-10.3-2.9zM277.8 104l1.5-3.9 2.6 1.5-.4 5.4zM236.7 101.6l2.1-7.1 2.8-.2.7 6.9z"/><path fill="#002D59" d="M242.3 380c-4.1 0-8.2-.5-12.1-1.5l-47.9-.4-3.8.3H91.1l4.1-54.7H75.3l3.2-42.6h107.4l-.2 2.1 1.6-2.1h48.2c4.1-1 8.3-1.6 12.5-1.6 11.8 0 23 4.2 31.6 11.8l8.3 7.4-4.7 5.6s-5.7 6.8-8.9 10.7c-1.6 2-3.3 3.9-4.5 5.4-3.3 4-7.9 9.8-7.9 9.8l20.7 32.1-8.4 6.5c-9.1 7.3-20.5 11.2-31.9 11.2z"/><path fill="#fff" d="M242.3 372.4c-8.2 0-15.8-2.3-22.3-6.6l3 4.9h-36.3l-13.4-22.9v.1l-1.7 22.9h-30.3l4.1-54.7h-11.6l-4.1 54.7H99.3l4.1-54.7H83.5l2.1-27.4h92.2l-1.4 19.1 14.8-19.1h37.3l-4.2 5.4c7-4.4 15.2-7 23.8-7 9.9 0 19.4 3.5 26.6 9.9l2.8 2.5s-5.7 6.8-8.9 10.7c-1.6 2-3.3 3.9-4.5 5.4-2.9 3.5.4-.4-4.5 5.4 0 0-.3-.2-3.2-2.5-2.9-2.3-5.7-3.4-9.5-3.4-7.9 0-14.9 7.1-15.4 15.8-.3 3.9.9 7.4 3.2 10 2.2 2.4 5.2 3.7 8.5 3.7 4.7 0 10.2-2.7 11.9-3.8l3.2-2 14.2 21.9-2.8 2.2c-7.9 6.2-17.7 9.5-27.4 9.5z"/><path fill="#C10A27" d="M220.5 292.6H193l-21.6 27.8 2.1-27.8H89.2l-1.5 19.6h19.9l-4.1 54.7H126l4.1-54.7h19.4l-4.1 54.7h22.5l1.6-20.6 4.5-5.1 15 25.4 27.2.2-22.8-38.6 27.1-35.6zm22.7 55.8c-4.5 0-8.5-1.8-11.4-5-3-3.3-4.5-7.9-4.2-12.8.7-10.7 9.2-19.4 19.3-19.4 4.5 0 8.7 1.4 12.1 4.5 0 0 13-15.6 13-15.6-6.3-5.6-14.6-8.9-24-8.9-21.3 0-39.9 17.3-41.5 38.7-1.6 21.4 14.4 38.7 35.8 38.7 9.3 0 18-3.3 25-8.7l-10.2-15.7c.1-.1-7.1 4.2-13.9 4.2z"/><path fill="#002D59" d="M271.5 133.7l-6.5 3.9-2.7 7.8h-.1l5.7 7.7.3 4.7 8.4 3.4 3.8-6.1 1.6-14.8z"/><path fill="#fff" d="M269.4 209.1l2.8-3.2 5.2-2.4-3.9 4.4zM271.4 135.4l-.8 3.7 8.5 4.9 1.4-2.8z"/><path fill="#002D59" d="M183.5 269.8l-.7-8.5-4.2-3.5-4-1.5-.1-.1-11.2 2.2-2.1 4.4-3.2 1.9-.3 7.2-.5 3.6 2.1 3.2 2.4 6.6 2 6.8 2.9.7.5 2 1.2 1.1 1.7 2.4 5-.8 9-4.5.2-5 5-2v-10z"/><path fill="#fff" d="M181.5 280.6v-4.9l-4.7-4.5-.6-8.2-2.6-2.1-8 1.6-1.7 3.5-2.4 1.4-.2 5.4-.4 2.5 1.7 2.5 2.1 5.8 1.4 5 2.6.6.5 2.2 1.7 1.5 7-4.1.2-3.6 3.1-2.6z"/><path fill="#002D59" d="M187.9 90.4l6.4 5.6 5.5-.5 3.9-1.8h.1l6.4-9.5-1.7-4.6 1-3.6-5-5.3-2.1-2.9-3.8-.8-6.4-2.9-6.1-3.5-2.6 1.6-1.7-1.1-1.7.1-2.8-.5-3 4.1-3.2 9.6 3.3 3.7-2.1 4.9 7.1 7.1z"/><path fill="#fff" d="M181.6 81.4l3.5 3.5 6.5-.1 6.2 5.3 3.3-.4 4.6-6.8-1.3-3.6.7-2.7-3.7-4-1.5-2-2.9-.6-5.6-2.6-4.5-2.5-2.4 1.4-1.8-1.2-2.3.1-2 7.9 2.3 2.7-.3 4z"/><path fill="#002D59" d="M209.9 322.3c-10.1 0-16.4-4.5-20-8.3-8-8.5-12-23.3-12-29.2 0-4 1.5-7.1 2.6-9.3.4-.8.7-1.5.9-2 .5-1.5.4-3.3.3-4.1-1.8-1.2-4.3-4.2-3.3-9.3.5-2.6 1.3-4.9 2-6.9 1-2.9 1.8-5.3 1.8-8.1 0-4.3-2.2-10.9-2.6-12.2l-3.1-3.1c-1.5.8-5.4 2.5-9.3 2.5-4.4 0-9.2 1.3-19.6 5.2-11.2 4.2-23.8 8.5-32.2 8.5-1 0-1.9-.1-2.8-.2-8.8-1.3-13.3-5-21.2-17.2-5.8-8.9-8.5-12.3-11.1-15.6-.9-1.1-1.8-2.3-2.8-3.6-3.2-4.3-7-9.9-8.3-11.8-2.4 1.1-9.9 4.5-12.3 6.1-2 1.3-2.1 3.6-2.1 4.5.6.6 1.9 2.1 2.6 3.8.7-.3 1.6-.5 2.6-.5 1.4 0 3.3.5 4.7 2.7 1.8-.5 6-.7 9.2 5.5 3.7 7.2 5.5 24.2 2.2 30-3 5.3-8.7 7.9-12 8.7-2.4.6-4.4.6-4.4.6-.4 0-10-.3-16.5-7.1-1.9-2-2.9-4-2.7-5.8 0-.8.3-1.5.6-1.9-.9-.8-2.2-2.4-2.6-4.8-.5-3.2-3.4-10.2-7.2-12-.8-.4-1.9-.9-3.1-1.3-4.7-2-11.1-4.7-13.8-8.5-3.3-4.6-4.1-12.7.3-18.2 3.7-4.7 5.5-7.4 5.8-18.4.3-11.5 3.1-26.4 5.9-31.2 1.6-2.8 4.8-5.2 7.6-7.4 1.6-1.2 3.9-2.9 4-3.6.1-.7.1-2.1 0-3.7-.2-3.3-.4-7.8.8-11.8 1.9-6.4 5.7-13.3 7.7-16.1 2.7-3.7 7.3-6.6 8-7L70.4 87c.1 0 3-2.3 7.3-5.3 1.4-1 2.8-1.7 4.2-2.4 3.5-1.8 7.5-3.8 15.2-12.5 1-1.1 2.2-2.8 3.6-4.7 5.5-7.4 13.9-18.7 23.4-18.7 11.6 0 21 8.1 26.6 13 3.7 3.2 7.1 5.2 10.4 7.1 1.6.9 3.1 1.8 4.5 2.8 4.6 3.1 20.2 13.9 25.8 23.3 4.1 6.9 5.2 7.6 6.1 8.3.3.2.7.5 1.2 1 1.7 1.7 3.2 4.5 3.4 5l11.7 18c.2.3 6.8 8.9 10.1 16.4 2.9 6.7 9.6 17.2 10.7 19.1 1 .4 4 1.5 5.5 2.1.1 0 .2.1.6.1.6 0 1.5-.1 2.4-.2 1.2-.2 2.5-.3 3.8-.3 1.5 0 2.8.3 3.8.8.7.4 1.3.5 1.8.5.8 0 1.2-.4 1.3-.6.6-2.1.9-5.2-.1-5.7-1.4-.8-5.6-3.2-10-5.8-2.6-1.5-5.4-3.1-7.7-4.5l-.9-.5c-6-3.4-9.5-5.5-10.8-11.6-1.2-5.8 1.1-10.3 2.7-13.3.2-.3.3-.6.4-.8 1.3-2.7 2.1-4.7 1.3-6.1-1.3-2.3-1.5-6.5 1.3-10.1.7-.9 1.4-1.6 1.9-2.2 1.7-1.8 2.8-2.9 3.1-7.3.3-3.3 1.3-4.9 3.2-4.9 1.5 0 3.3 1.3 5.4 3.9 3.2 4 5.8 16.5 3.6 20.8-2.3 4.5-6.2 6.3-8.8 6-1.6-.2-5 2.1-6.2 5.6-1.1 3.2.1 9.2 5 11.8 2 1 4.4 1.7 7 2.3 3.9 1 8.3 2.1 12.2 5 6 4.6 9.5 9.8 11.1 17.1 1.5 6.5 2.2 9.1 4.6 12.7.5.8 1.2 1.7 2 2.6 2.9 3.7 6.4 8.3 6.2 13.7-.2 5.8-2.6 18.5-3.1 21.5l.8 2.5-15.7.6-6.3 2.9-3.4 14.5-.1.2-17.7 23.6-.8-.9c0-.1-4.7-5.5-9.5-8.3-3.1-1.8-6.7-3.2-9-4 1 1.9 2.8 4.8 5.1 7.7.5.6 1 1.2 1.4 1.8 3.3 4 5.6 6.9 5.8 10.5.2 4-1.5 6.5-2.6 7.7 1 .7 2.6 1.9 3.6 2.9 1.5 1.5 5.2 6.2 6.5 16.1 1.4 10.3.6 16.4 0 20.1-.8 4.4-4.6 9.7-6.9 11.4-2 1.5-5.7 3-8 3-.4 0-.7 0-1-.1-1.5-.4-3.2-1.6-4.4-2.6-.6 1.2-1.8 2.8-3.7 2.8l-1.4-.1z"/><g fill="#C10A27"><path d="M43.5 245.2c.5-.9 3.2 2.8 4.2 2.7 1-.2 2-1.2 2.7-.5.7.7 3 .7 3 .7s1.2 3.2 2.2 2c0 0-.5 1.7.5 3.2s1.8 3.7 1.8 3.7-1.8-.7-2.8-1.2-1.8.7-1.8.7-4.8-2.3-6.7-4.2c-2-1.9-4.3-4.7-3.1-7.1zM57 248.1s-2.5-2 .5-2.7c3-.7 1.8-2 1.2-3s-.3-3.7 3-1.5 6.5 2.2 6.5 2.2.7 2.7 2 3.7 2.3 3.2 1.3 4.5-2 3-3.5 2.8c-1.5-.2-2.8.2-3.7.8-.8.7-1 0-3.3-1.2-2.4-1.1-7.7-2.8-4-5.6zM65.6 222.4l-.3-5s4.7-1 6.7 2.2 2 3.2 2 3.2-5-2.7-8.4-.4zM63.3 220.6c-.5 1.3-2.5-.5-2.5-.5s-.5 2.5-2.8 1.7-3.5-4.2-6-7.8c-2.5-3.7-3.2-5-1-4.5s3.7 4.2 4.7 5.7 3.3 2 3.3 2 1.8-2 3.3-.7c1.5 1.2 1 4.1 1 4.1zM54 245.6h-1.7s-1.3-.3-2.7-2.2c0 0-2 1-5-.2s-3.5-1.7-3.7-4.7c-.2-3-1-9.2-4.7-11.7s-7.5-6.5-9.7-6.2c-2.2.3-8.3-1.2-11-6.7s-.5-11.8 1.2-13.7c1.7-1.8 2.7-.3 4.3-3.3 1.7-3 2-5.8 1.3-8.7-.7-2.8-.2-12.2 1.5-21.2s3.5-15.7 6.7-18c3.2-2.3 3-1.8 7.3-7.3S49.3 125 49.3 125l-2.8-.7s-2.2 7.2-4.2 5-.2-12 2.7-16.5 8.5-9.5 8.5-9.5 6.7 9.5 14.7 14 19.5 3.2 16.7 21c-2.8 17.8-8.2 29.3-7.2 36.8 1 7.5 5.8 16.5 6.5 20.5.7 4-1.5 3.8-4.5 2-3-1.8-6.2-5.5-8.5-9.8-2.8-5.3-8.5-17.2-7.7-23.2 0 0-4.3.7-5.7.3-1.3-.3-4-5.3-4-5.3s.2 9.3-2.8 16.3-6.3 13-8.7 16c-2.3 3-6.8 6.2-6.8 6.2s3 2.7 3.3 7.8c.3 5.2.2 8-2.7 9.7-2.8 1.7-8 2-6.5 3.7 1.5 1.7 5.5 2.3 9.8 1.5 4.3-.8 8 1.5 10.5 4s7.3 5.3 7.7 8.3c.3 3-.2 4.2-.7 5-.5.8-1.3 2-1 3.2.3 1.2 0 1.8-1.2 1.8-.9.3-.7 2.5-.7 2.5zM43.6 206.6s7.8-7.5 9.8-10 4.3-6.5 4.3-6.5 2.2-1 3 .5c.8 1.5 2.5 3.2 1.3 4-1.2.8-5.2 2.2-7 4.8-1.8 2.7-5 5.3-7.3 7-2.2 1.7-4.1 3.8-4.1.2zM208.8 178.9l2.2-.5s2.3-12.7 1.8-17.3c-.5-4.7-3-10.7-7.3-8.2s-5.2 4.8-4.5 8.5c.7 3.7.5 5.3.5 5.3l-4 2.3s.2-6.5-3.5-8.8c-3.7-2.3-7.7-4.3-11-1.2-3.3 3.2-5 5.3-5 9.7s-.8 11 .7 16.2c1.5 5.2 3.8 14.3 3.8 14.3l-1.2 1.5s-1.5-5.5-4.2-5.2c-2.7.3-2.8 5-2.8 10.3 0 5.3.7 7.3 1.7 7.8s1 .5 1 .5l.5 1.8s-3 3.2-1 7.7 7.2 7.7 7.2 7.7l-1.2 3s1.2 3.5 1.5 8.7c.3 5.2-1 9.7-1.7 13.8-.7 4.2 1.3 9.7 4 11 2.7 1.3 6.7 2.7 6.7 2.7l-.7 1-2.8-1s-3.5 4-4.8 10.5c-1.3 6.5-.2 9.2.7 10.3.8 1.2 2 .5 1.7 2.3-.3 1.8-.8 5.7.3 6.3 1.2.7 2.2.5 2 3.3-.2 2.8.8 7.2 3.7 10.2 2.8 3 6.2 3.8 7 1.8.8-2 2.2-11 2.2-11l1.3-1.8s0 5.7 0 8.8c0 3.2 0 4.5 1.8 5.3 1.8.8 6 2.5 7.8-.5s1.2-16-.3-22.5-.3-8.5-2.3-9.5-2-1-2-1 .3-2.2 2.2-2.2 3.2-.2 4.5-1.2 2-1.7 2-1.7l.3 2s-2.2 1-2.2 3.3 3.8 8.3 4.5 14c.7 5.7-.2 20.8 2.5 20 2.7-.8 5-10 5-12.8 0-2.8-6.2-30-6.2-30l-1.3-.8s-.8 1.5-3.3 3-6.8 2.3-6.8 2.3l-2-2.3s-.8 1.8-2.2 2c-1.3.2-1.3-1.8-2.7-1.5-1.3.3-2.5-.5-2-2 0 0-3.7-.5-2.8-1.7.8-1.2 3.2-.7 3.2-.7l1.2-1.3s1.5 0 1 1.5 0 2.3 2.2 1.7c2.2-.7-1.2-3.3 1.2-3.8 2.3-.5 1.3 5.2 4.8 3s6.7-8.5 5-8.5-1.7-1.8-1.2-3.7c1.7-5.5-2.8-8.3-4.8-10-2-1.7-7.8-7.2-9-13.5-1.2-6.3-4-8.5-4-8.5s1.7-2 1.7-4.7.5-9.7-2.3-13.2-6-4.7-6-4.7l-.2-1.2 5.2-2.3 1.5-2.5s-1.5-1.5-3-2-.3-2.8.7-5-.3-1.8 1.2-5.3 1.8-7.2 1.8-7.2l2-1.2s1.7 5.7 2 11.5c.3 5.8-.8 10.3 1 9.7 1.8-.7 3.7-8 3.7-12.3 0-4.3-.7-15.8-1-17.5-.3-1.7 2.8-2.5 3-1.2-.2 1.7-.2 8.4-.2 8.4zM203.6 209.4s-.3 1.8 1.2 2.3 1.7 5 1.7 6.8c0 1.8-1 4.5.2 4.8 1.2.3 2.8-2.8 3-5.7.2-2.8 0-6.8-2-7.8-2.1-.9-4.1-.4-4.1-.4zM206.8 233.1c0 1.7 1.3 1.8 2.5 1.5 1.2-.3 1.3-2 1.2-3.5s-2.2-2.2-3.3-1.5c-1.2.6-.4 1.8-.4 3.5zM210.1 238.6c1.3-.5 2.8 2.5 5.2 6.7 2.3 4.2 7 10.2 8.7 13 1.7 2.8 1 5.3-.5 6.8s-3.3 2-3.7-2.8c-.3-4.8.3-4.7.3-4.7s-2.3-.8-4.3-6.8-3.3-6.7-5-8.8c-1.7-2.3-.7-3.4-.7-3.4zM233.3 241.6s-2.2-3.8-4.5-6.5-6-5.5-6-5.5 2.5-3 5.3-1.2 4.2 4 4.8 5.8c.7 1.8 3.5 1.5 3.5 1.5l1 2.2c.1.1-2.1 4.1-4.1 3.7zM246.8 236.1c-.5-.2-1.8-6.3-2-11.7-.2-5.3 1.7-8.3 4.5-8.7 2.8-.3 5.7 0 5.5 1.5-.2 1.5-1.7 10.3-3.2 12.5-1.5 2.2-4.8 6.4-4.8 6.4zM261.4 210.2s-3.3-2.7-4.5-8.3c-1.2-5.7-1.8-11.2-1.8-11.2l1.5 1.7s.8 4.7 2.3 7.3c1.5 2.7 3.8 6.3 6.2 8 2.3 1.7 5.3 2.2 4.3 2.8-1 .7-8-.3-8-.3zM273.5 208.2s-3.5.8-6.2-4.8c-2.7-5.7-3.8-14.8-3-19.7.8-4.8 4.7-5 7.5-3s4.8 10 4.3 15.2c-.5 5.2-2.6 12.3-2.6 12.3zM234.5 161.7s1.5-1.2 3.3.3c1.8 1.5 4 1.7 7.2 1.5 3.2-.2 8.8.8 8.8.8l-1 1.7s-4.5-.3-7.8 2.7-3.8 3.7-3.8 3.7-3.5-3.3-3.8-5.2c-.4-1.8-.9-3.8-2.9-5.5zM230 114.4c0 1.7-.2 3.5-1.7 5s-4.2 8-1.5 13 9.2 9.5 19.5 12.7c10.3 3.2 10.7 5 10.7 6.8 0 1.8-1.7 5.3 0 6.2 1.7.8 2 1.2 3 .2s2.5-7.2-.3-9.8c-2.8-2.7-9-5-16.3-7.3-7.3-2.3-9.3-3.5-11.8-6.3s-5.8-9.2-1.5-14c4.3-4.8 4.3-4.8 4.3-4.8s-4.4-8-4.4-1.7zM232.1 110.7c-1.3-.8-2.5-3.7-1.3-5.5 1.2-1.8 3.2-3 4.5-6.2 1.3-3.2 1.3-10.2 1.8-9.2s1.3 6.5.8 8.7-4.2 4.5-4.7 6.5-.2 3.3-.2 3.3l-.9 2.4zM235.3 109.6s-1.7-1.3.2-2.8c1.8-1.5 2.3-2.3 2.8-4.5l2-3.8s1.8 3.8 2 6.5c.2 2.7-1.3 4.2-1.3 4.2l-1.5-.7s1.3-3.3 0-2.7c-1.3.7-2.7 1.2-2.8 2.3s-.7 1.8-1.4 1.5zM237.3 111.7l.7-1.5s2.8 2.3 5 0 1.7-6.8.5-10.5-1.8-4.8-1.8-4.8 5.3 7.2 4.5 13.3c-.8 6.2-4.7 8.3-5.2 7.3s-.8-2.2-1.8-2.7c-1.1-.4-1.9-1.1-1.9-1.1zM224.6 168.2c.8-2 2.5-.5 2.8 2.7.3 3.2.5 14 .2 17.3-.3 3.3-3.2 8.3-3.2 8.3s-2.7-2.8-.7-5.2 2.7-3.7 2.5-10c-.1-6.2-1.6-13.1-1.6-13.1zM229.3 172.1s1.7 1.3 1.5 7c-.2 5.7.5 12.3-.3 15-.8 2.7-1.3 1.2-1.8-.3s.5-3.7.8-6.7.3-11-.3-12.3c-.7-1.4.1-2.7.1-2.7zM232.5 177.4s1.3 1 1.3 2.7c0 1.7.3 7.3-.5 7.5-.8.2-1.7-1.7-1-3.7s-.7-5.5.2-6.5zM71.8 88.2s3.3-3.2 8.8-4.7 6.3-3.3 8.2-5.3c1.8-2 5.2-3.3 9.2-8.5 4-5.2 11.2-14.5 13.7-17.7s7-8.5 15.2-6.5 16 9.7 27.2 17.8c11.2 8.2 28 21.8 28 21.8l-1 1.7s-8.6-7.6-16-13c-4.4-3.2-6.6-3.3-11-6.7-3.5-2.6-4.9-6-7.8-7.8-4.1-2.5-7.2-3.9-8.5-3.1-5.2 3.3 1.8 11.5 4.2 12.2 2.3.7 4 0 9 2.5s13.8 9.5 18.7 12.7c4.8 3.2 10.7 7.3 10.7 7.3s-2.5 2-4.8.8-3-2.5-5.3-3.5-4.2-1.8-4.7-.2 1.5 2 2.2 3.2c.7 1.2 0 2.5 0 2.5s-2.7-.3-4.3-3.5c-1-1.9-3.4-5.4-6.5-9.2-2-2.4-3.6-5-8-7-3.1-1.5-5-.8-6.3-.3-3.5 1.2-2.4 6.1-1.8 7.5.8 2 2.3 5.3 5.3 7.2s4.8 3 4.8 3l.2 2.8s-15.3-5.8-31.8-.3l-17.5-1.8s1.8-4-4.5-6.2-10 10.7-10 10.7-12.1-.5-15.6-8.4z"/></g><g fill="#002D59"><path d="M25.4 188.1l.3-3.5s4.5-7.2 5-14.2 1.3-9.5 1.3-9.5 4.8-5.3 5.5-3.5-3 15-5.8 21.3c-2.8 6.1-6.3 9.4-6.3 9.4zM114.1 90.3l1.5-2.3s-1-8.3-2.5-11.8-2.5-6.5-2.5-9.3-1-3.2-2.3-1.8c-1.3 1.5-2.3 6.3-.5 7.5s3.3 6 4 9.3 1.6 8.4 2.3 8.4z"/></g><path fill="#002D59" d="M225.1 96.1c.5-7-1.7-18.6-3.4-27.9l-.1-.4c-1.5-8-2.4-10.3-4.1-10.3-1.2 0-1.9 1.4-2.6 3.4-.7 2.2-1.2 7.2-1.8 12.9-.9 8.6-2 19.2-4 21.8-8.1 10.6-21.9 12.3-25.4 12.6-.5-2.1-2.7-6.8-10.8-8.7-8.8-2-16.8-3.3-18.1-3.5-1.2-.7-7.9-4.6-16.5-5.3-.9-.1-1.9-.1-3-.1-7.5 0-14.6 2-16.3 2.5-1.4-.6-6.4-2.6-14.1-2.2-7.7.4-11.5 4.2-12.7 5.5-2.3-.1-12-1.1-18.1-7.4-6.7-6.8-11.1-20.2-12.5-30.3-.5-3.4-.6-6.5-.8-9.1-.3-5.2-.5-8-2.6-8.3H58c-.6 0-1.3.4-2 1.2-3.5 3.7-9.2 16.7-7.9 41.9.9 17.8 11.8 28 20.8 33.4-1.9-.5-3.5-.9-4.3-1.1-1.4-.3-2.6.1-3.3 1.3-1.3 2-.8 5.9 1.2 10.1 3.8 7.9 8.2 11.8 13.2 11.8.3 0 .5 0 .8 0 1-.1 2-.1 2.8-.1 1.6 0 2.4.2 2.9.3 0 1.7.1 6.8-.3 11-.4 4.7-2.1 8.3-3.4 11l-.3.7c-.2.4-.4.8-.6 1.2-1.2 2.3-2.5 4.6-.7 10.5 1.9 6.3 7.8 17.9 10.5 19.1 1.5.7 2.7 1.1 3.3 1.4.5 1.7 1.8 5.8 3.5 7 .3.2.5.4.6.5l-.2.1-.1.4c-.1.8-1 8.3 1.5 11.3.6.8 1.2 1.4 1.6 1.9 1.2 1.4 1.9 2.2 2.2 3.2.5 1.7 2.5 4 3.1 4.7.5 1.6 3.5 10 11.9 10.3 3.9.1 6.5-.4 8.6-.9 2.6-.6 4.7-.8 7.3.1 4 1.4 6.7 2 9.2 2 2 0 3.8-.4 5.6-1.3 3.8-1.9 8.4-6.4 9.4-7.3 1.2-.5 6.1-2.8 9.6-10.7 3.3-7.6 2.5-14.3 2.2-16.1.9-1.2 3.6-5 4.7-9.5 1.4-5.9 3.3-9.4 4.4-10.9 1.7-2.6 1.9-10.8.9-15.5-.8-3.6.1-9.8.4-11.7.8-.2 2.5-.5 4-.5 1 0 1.8.1 2.4.4l.4.2c1.4.7 3.6 1.7 6.5 1.7 3.3 0 6.9-1.3 10.7-3.9 8.9-6.1 15.6-15.9 14.6-19.3-.2-.8-.9-1.8-3-1.8-1.5 0-3.6.5-6.1 1.1-2.2.5-4.7 1.1-7.3 1.5-2.5.3-4.7.4-6.1.2 5.6-2.1 18.2-7.2 22.4-11.2 5.7-5.9 9.1-18.3 9.5-24.9z"/><path fill="#C10A27" d="M173.6 149.6c-2.8 1.8-4.8 3.3-9.3 3.8s-7.5 1-9.5 1.3-4.5.8-4.5.8-3.8-6.5-4-7.8l-1.5.3s.8 3.8-1.5 3.8-4.3 1-6.5-4-2.5-7.8-2.5-7.8l-2.5-2.3s-.5 5.8-2 10.3-3 5.8-5 4.5-.5-4.5-.5-4.5l-2.3.5s-1.5 4.3-4.3 5-7.8-.3-11.3-1.5-9.5-3.8-13-6.5-4-5.5-4-8l2-7.8c1.4-4.4 3.3-13 3.3-13s-2.3 6.8-10.3 4.5c-4.5-1.3-12.3-5.6-17.2-9.1-7.3-5.2-13.8-13.8-15.8-28.1-4-29 5-39.7 6.4-40.5.5.6.7 3.7.8 6.4.1 1.3-1.8 20.9.8 30.1 2.5 8.8 7 12.9 10.5 16.5 7.5 7.7 14 7.3 18 8.5s1.5 4.3 4 4.5 2.3-8.8 2.3-8.8 4.1-5.8 12.3-6.3c8.3-.5 16.5 5 16.5 5l1.5-1.8s-1.8-4.3 14.5-2c8.8 1.2 11 7.5 12.5 7.8s1.4-3.5 11-1.3c2 .5 2.1 3.5 4.3 3.5 5.3 0 9.5 2.8 9.8 6.5.3 3.5.3 7.3-.8 8.3s-2.5 2.5-2.5 2.5 4.5 3.5 4.3 9.8-1.2 15.1-4 16.9zM70.9 120.8c3 2 4 4 5.5 5.5s7.3 4.5 7.3 4.5l-1.8 1.5s-7.5-2.8-10.5-5.5-3.3-3.9-4.3-5c-1.7-2 .5-3.5 3.8-1zM72.9 136.3c-3.9-1.2-7.4-4.5-9-7.8-1.9-4-1.6-8.5-.9-9.6.3-.4.5-.5.8-.5 0 0 1.6 8.8 3.4 10.3s.8-.8.8-.8 2 0 4.5 2.8 7 2.5 8.8 3.8 1.3 2 1.3 2-5.1 1.2-9.7-.2zM139.6 230.4c-.5 2.2-4.7 1.9-6 .3-2.3-2.8-2.3-3.2-5.3-2.8-2.2.2-6.8 2.7-9.5 3.5-2.7.8-4.8-.2-6.5-1.2s-2-2.8-2-2.8 4.3 1 8.2.2c3.8-.8 8.2-2.2 11.7-1.8 3.4.3 9.9 2.4 9.4 4.6zM173.6 167.1c1 4.4-1.3 10.6-2.5 12.5-1.1 1.6-5.1 6.2-6.3 12.5-1.5 8-4 9.7-4 9.7 0 .1.5 3.6-2.3 12-1.5 4.6-4 6.4-6.5 6.3-1.9-.1-5.8-4-5.8-4l-1.8-.3s1.4 2.7 4 5.3c.7.7 1.1 1.4 2.3 1.8 2.4.8 5.9.9 5.9.9l-1.3 1.3s-2.8 1-5.3 1.3c-2.7.3-5.8.8-10.3-.3-5.3-1.3-8.8-4-10.5-4-2.2 0-6.8-.5-9 1.3-1.2 1-3.4 1.5-4.8 1.5-.8 0-5.6.6-9.3-1-2.7-1.2-4.6-4.5-4.8-5-.4-1.5-1.3-2.5-2.6-4-.5-.5-1-1.1-1.6-1.9-1.5-1.9-1.3-7.2-1.1-9.4.1-.1.9-1.9 1.7-3.7.1-.3 0-2 2.5-3.6 1.1-.7 3.2-.6 4.7-1.2 2-.7 3.4-2 3.5-2.2.4-1-2.9.6-5.7 1.5-1.7.6-3.2.4-3.5.7-1.4 1.5-3.2 4.8-4.2 4.2-1-.7-2.4-3.2-3-5.4l-.1-.5-.5-.2s-1.5-.5-3.7-1.5c-1.7-.8-7.3-11-9.5-17.9-1.5-5-.6-6.8.5-8.9.2-.4.5-.9.7-1.4l.3-.7c1.3-2.8 3.1-6.6 3.5-11.7 0 0 .8-8.6 2.8-7.8 2.5 1 8.8 5.5 8.8 5.5s-3.3 5-.3 6 7.8 2 10 5 2.8 7.8 2.8 7.8l1.3.3s1-1.3 2.3-1.8 2-.3 2-.3l1-1s-2.3-1.8-3-3.8 1.3-2.8 3-2.8 3.8-3.1 8.5-2.6 5.3 1.1 5.5 3.4-1.8 3.3-1.8 3.3-.2.7.5 1c.8.3 2.5.4 4 .3 3-.3 6.3.3 6.3.3l.8-1.8s-4-1.8-3-3.5 2-2.5 5.5-2.3 7.5 2.3 7.5 4.8c0 0 1 3.5-.3 4s-2.5 0-3 .8.8 7.5 1 9 1.3 2.3 1.8 1 1.5-1.8 2.5-2 2-1.8 4.3-3.5 4-.3 2 1.5-3.8 5.5-4.8 7-4.8 5-4.8 5l-.3 2.8c1.8 1.5 1.5 3.8-.3 4.8-1 .6-1 3-1 3s0 0 1.8.8c0 0 3.8.5 7.5 1.5s5.5 2.3 5.5 2.3.3-1.5.8-4 .5-7.5 1.5-10 4.9-5.3 6.4-8.6.9-7.8.2-9.5-2.7-3.3-1-5.2c1-1.1 5.4-3.5 6.3-1 1 1.1-.4 5.1-.2 6.3zM195.1 134.6c4.3-.5 13.6-3.6 14-3.1 1.7 2.1-5.7 7.9-7.5 9.3-3.3 2.5-8.5 4.5-8.5 4.5-7.3 1.8-9.3.8-10.8-.8s2-6 3.5-7.8 5.1-1.6 9.3-2.1zM209.4 114.6s-7.5 9.3-17.3 9.5-8.5-7.5-8.5-7.5c7.9-1.9 22.2-11.3 28.5-19.5 2.1-2.8 1.7-11.4 2.9-22.9.6-5.4 1.1-10.5 1.8-12.5.3-.9.5-1.5.7-1.8.4.8 2.1 13 2.1 13 1.7 9.2 2.2 15.2 1.8 22-.5 6.5-6.9 14.8-12 19.7z"/><path fill="#002D59" d="M101.8 200.7c.8-.8 2 1.2 4.8-.5s4.5-2.3 4.5-2.3.2 2.5-.5 5.2-2.3 2.5-3.7 4.5c-1.3 2-1 6.8-1 6.8s-1.7.8-4.5-1.7-2.8-8.8.4-12zM113.6 195.1s4 .7 4.7 1.7c.7 1 4.7 5.2 4.7 5.2s-.5 1.8-1 3.7-2.3 1.3-2.3 1.3 1-2.2 0-4.5-2.3-4.5-3.7-5.2c-1.4-.7-2.4-2.2-2.4-2.2zM140.8 195.9l.7 1s-3.3 2.8-3.8 5.8-.7 4.8-.7 4.8-1.8-2.2-2.7-1.2c-.8 1-1.3 7-1.3 7l-1.2-.7s-.3-5.7.2-7.7 1.2-2.3 1.2-2.3 2.2-.8 3.5-3c1.3-2 4.1-3.7 4.1-3.7zM146.1 198.7s2 .7 4.8 2 4.5 1.7 5.5 1.5c1-.2 1.2.5 1.2 2s0 4.3-.3 5.7c-.3 1.3-2.8 5.8-2.8 5.8s-2-.8-2.3-2.7c-.3-1.8-1.8-4.7-3.3-5.3-1.5-.7-3.3-2.7-3.5-3.7-.3-.9.7-5.3.7-5.3zM96.5 182.4l1.7-1.3s.5-6.8-2.2-10.2c-2.7-3.3-4.5-5-5.2-7.7-.7-2.7.2-11.5.2-11.5l-1-1s-1.3 3.7-1.5 5.5c-.2 1.8 0 5.7-.3 6.8-.3 1.2-.5 4-.5 4s4.8 2.8 6.3 5.2c1.5 2.4 3 6.7 2.5 10.2zM157.8 138.1s-1.7-4.2-1.5-8.2c.2-4 1-5.2 3.2-5.7s6.3-1.7 7.3-2.2 2.7-.5 2.5.7c-.2 1.2-1.2 2.2-1.2 2.2l-.2 8.8s-1.9-.4-4.2.5c-2.9 1.2-5.9 3.9-5.9 3.9z"/><path fill="#fff" d="M153.5 156.8s1-1.1 2-1.1c0 0 .8 3.3 4.8 2.9s3.9-3.3 3.9-3.3l2.8-.8s-1.3 5.4-6.5 5.6-7-3.3-7-3.3zM107.5 153.6s1.9-.1 1.9 1.4c0 0-1.6 2.5-6.4 1.6-4.7-.9-5.9-4.3-5.9-6l2.5.9s-.3 3.1 3.4 3.9 4.5-1.8 4.5-1.8z"/><path fill="#002D59" d="M266.1 248.8l-3.5-4.2-.5-17.8-4.2-2.1-5.3 2-7.1-.2-2.2 4.3-2.7-2.9-15.2 11.1-1.3 7 7.5 15.7-3 1.9-5.7 10.4 4.6 5.2 13.7-4.3 4.6.2 2.3-2.8 6.1-.9 2.9.9 8.9-18.8z"/><path fill="#fff" d="M258.4 249.4v-12.3l-4.1-.7-3.1 1.8-6.5.5h-3.2l-11.9 8.6 6.4 13.5-3.5 2.2-4.1 7.5 2.5 2.7 10.9-3.5 5.3-2.1 6.3-.9 1.4.5 6.5-13.9zM226.4 244.3l.7-4.8 12.8-9.3.1 4.7zM246.2 229.1l-.5 4.7 6.2.1.4-5.1zM257.4 227.5l-.7 4.3 3.8 1 .2-4z"/></g></svg>