<?xml version="1.0" encoding="utf-8"?>
<!-- Generator: Adobe Illustrator 18.1.1, SVG Export Plug-In . SVG Version: 6.00 Build 0)  -->
<svg version="1.1" xmlns="http://www.w3.org/2000/svg" xmlns:xlink="http://www.w3.org/1999/xlink" x="0px" y="0px"
	 viewBox="0 0 357.8 380" enable-background="new 0 0 357.8 380" xml:space="preserve">
<g id="Layer_4">
</g>
<g id="Layer_0_xA0_Image_1_">
</g>
<g id="Layer_5">
</g>
<g id="Layer_2">
</g>
<g id="Layer_6">
</g>
<g id="Layer_7">
</g>
<g id="Layer_4_copy">
</g>
<g id="Layer_0_xA0_Image_copy">
	<g>
		<circle fill="#FFFFFF" cx="175.9" cy="179.4" r="133.4"/>
		<g>
			<path fill="#FFFFFF" d="M176.7,42.6c-75.3,0-136.3,61-136.3,136.3s61,136.3,136.3,136.3c75.2,0,136.3-61,136.3-136.3
				S251.9,42.6,176.7,42.6z M260.3,219.3l-2.6-1.1l-11.1,7.5l-15.1,2.1l-7,3.3l10.9,26.7L196.2,279l-5.5-7.5l-16.5,3.5L145,253.2
				l-12.3-2.6l-32.3-19l-4.5-0.3l-0.5-2.3l-4.3-1l-1.5-5.5l-7.8-4.3l-6.5-7.8l8.3-9l-2.5-3.5l6.8-9l13.5-36.5l4.8-1.3l8.5-17.8
				l-4.3-8.3l30.2,2.5l5.8-0.8l6.5-16.5l15.2,4.1l6.2-0.8l20.1-11.8l5.3-1.4l10.3-13.3l35.1,9.8l8.8,2.2l-2.3,10.8l-0.7,15.8l12.2,3
				l11.5,2.7l2,2.3l-3,3l3.3,7.5l-0.5,5.5l5.6,3.7l-7,3.3l3.6,10.9l4.2,4.8l-5.8,10.8L269,187L260.3,219.3z"/>
			<path fill="#002D59" d="M176.7,28.5c-83,0-150.3,67.3-150.3,150.3c0,83,67.3,150.3,150.3,150.3c83,0,150.3-67.3,150.3-150.3
				C327,95.9,259.7,28.5,176.7,28.5z M304.8,169.3l-5.5,5.7l-2.7-1.4l-6.6,12.6l-13,23.6l-5.3,18.7l-4.1-2.7l-13.1,10.3l0.3,8.3
				l-2.2,2.1l-0.5,8l7.9,6.7l9.4-4.1l15.5,22.3l0.8,2.5l-18.3-20.2l-8.2,3.8l-10.7-9.9l0.3-9.3l1.9-3l-0.5-6l-4.8,28.5l-16.4,11.7
				l-30.3,14.7l-0.8,4.1l7.7-0.8l-1.4,12.3l7.4,7.4l-10.1-4.9l1.4-12l-7.1,1.9l-0.8-6.3l-8.8-10.7l-17.5,4.4l-30.8-23.8l-14.3-1.4
				l-46.5-24.7l-1.2-8.9l-7.7-3.3l-5.2,3.8l3.6,4.7v2.5l-5.5-6.8l4.9-4.4l0.3-4.7l-5.2-5.7l-5.7-2.5l-3,3.8v2.7l-5.7-0.3l3.6-1.1
				l3-5.7l-3.3-2.5l-3.8,1.6l4.7-3.8l4.1,4.1l6.8,0.8l7.7-8.8l-3.8-4.9l7.4-9.9l14.8-40.5l5.7-0.5l9.3-18.3L97,119.1l23.3,0.8
				l16.4,1.6c0,0,7.4-16.4,8.8-17.5c1.4-1.1,23.5,0,24.9,0c1.4,0,18.9-9.9,18.9-9.9l10.4-2.6l31.7-18.2l23.8,14.5l6,3.8l-2.5,11.8
				c0,0,4.1,1.9,6.6,4.4l5.7-5.2l2.7,3.3l7.4-3.8l2.2,2l-8.8,6.4l-3-1.6l-9,10.4l9.8,2.2l5.2,0.5l6.3,1.6l3.3-0.5l2.7-5.5l-2.2-1.6
				l4.7-4.1l-3.3-5.5l7.7-10.9l0.9,7.2l-5.2,3.9l3.6,5.7l-3.9,3.6l1,2.4l-3.4,7.1l-0.3,4.6l-2.2,3.6l2.2,8.2l-0.3,4.1l6.3,3.8l9-5.2
				l11.7,10.6v5.2l-12-11.6l-15.1,7.8l2.5,6.8l7.4,7.4l6.3-7.1l6.3,13.7l10.9-4.7l-0.8,4.2l-10.9,4.4L304.8,169.3z"/>
			<polygon fill="#FFFFFF" points="77.2,198.5 79.2,201.3 81.4,201.5 79.4,198.8 			"/>
			<polygon fill="#FFFFFF" points="70.9,211.8 73.9,211 78.7,216.5 75.7,217 			"/>
			<polygon fill="#FFFFFF" points="79.7,221.5 82.4,220.5 87.7,222.8 84.9,223.8 			"/>
			<polygon fill="#FFFFFF" points="85.9,233 90.7,229.5 93.9,230 89.7,233.3 			"/>
			<polygon fill="#FFFFFF" points="228.9,230.3 232.4,228.1 245.4,227.6 243.2,230 			"/>
		</g>
		<polygon fill="#002D59" points="265.6,229.7 279.9,233.4 288.4,207.9 264.4,212.6 254.8,208.5 248.6,211.6 244.8,216.5 
			249.4,228.4 259.1,231.2 265.6,229.7 265.5,229.6 		"/>
		<path fill="#002D59" d="M178.9,357.8C80.2,357.8,0,277.5,0,178.9C0,80.2,80.2,0,178.9,0c98.6,0,178.9,80.2,178.9,178.9
			C357.8,277.5,277.5,357.8,178.9,357.8z M178.9,41.1c-76,0-137.8,61.8-137.8,137.8c0,76,61.8,137.8,137.8,137.8
			c76,0,137.8-61.8,137.8-137.8C316.6,102.9,254.8,41.1,178.9,41.1z"/>
		<path fill="#FFFFFF" d="M178.9,18.8c-88.4,0-160.1,71.7-160.1,160.1S90.5,339,178.9,339c88.4,0,160.1-71.7,160.1-160.1
			S267.3,18.8,178.9,18.8z M178.8,316.1c-75.9,0-137.5-61.6-137.5-137.5c0-75.9,61.5-137.5,137.5-137.5
			c75.9,0,137.5,61.5,137.5,137.5C316.2,254.6,254.7,316.1,178.8,316.1z"/>
		<g>
			<polygon fill="#002D59" points="283.9,100.8 279.5,98.4 280,92.1 268.1,89.1 266,81.7 254.1,83.1 247,81.2 244.3,87.3 
				241.3,91.2 241.4,91.8 237.2,92.9 234.1,102.1 237.8,110 239,117.3 246.5,117 254.7,114.8 259.6,116.8 262.7,119.4 272.1,116.4 
				278.4,115.8 279.4,110.6 283,107.7 			"/>
			<polygon fill="#FFFFFF" points="274.6,108.5 276.3,107.1 272.9,104.8 274.7,100.5 263.6,97 262.7,93.2 253,93.6 247.4,91.2 
				245.7,93.4 246.2,99.2 245.9,102.9 240.4,103.8 242.6,108.6 243.4,113.3 248,113.1 255.4,111.1 260.5,113.3 262.5,114.9 
				269.9,112.6 273.9,112.2 			"/>
			<polygon fill="#FFFFFF" points="253.1,90.8 255.2,84.8 264.5,83.7 262.6,90.4 			"/>
			<polygon fill="#FFFFFF" points="266.4,94.7 277.3,98.4 278,93.6 267.7,90.7 			"/>
			<polygon fill="#FFFFFF" points="277.8,104 279.3,100.1 281.9,101.6 281.5,107 			"/>
			<polygon fill="#FFFFFF" points="236.7,101.6 238.8,94.5 241.6,94.3 242.3,101.2 			"/>
		</g>
		<g>
			<path fill="#002D59" d="M242.3,380c-4.1,0-8.2-0.5-12.1-1.5l-47.9-0.4l-3.8,0.3H91.1l4.1-54.7H75.3l3.2-42.6h107.4l-0.2,2.1
				l1.6-2.1h48.2c4.1-1,8.3-1.6,12.5-1.6c11.8,0,23,4.2,31.6,11.8l8.3,7.4l-4.7,5.6c0,0-5.7,6.8-8.9,10.7c-1.6,2-3.3,3.9-4.5,5.4
				c-3.3,4-7.9,9.8-7.9,9.8l20.7,32.1l-8.4,6.5C265.1,376.1,253.7,380,242.3,380z"/>
			<path fill="#FFFFFF" d="M242.3,372.4c-8.2,0-15.8-2.3-22.3-6.6l3,4.9h-36.3l-13.4-22.9l0,0.1l-1.7,22.9h-30.3l4.1-54.7h-11.6
				l-4.1,54.7H99.3l4.1-54.7H83.5l2.1-27.4h92.2l-1.4,19.1l14.8-19.1h37.3l-4.2,5.4c7-4.4,15.2-7,23.8-7c9.9,0,19.4,3.5,26.6,9.9
				l2.8,2.5c0,0-5.7,6.8-8.9,10.7c-1.6,2-3.3,3.9-4.5,5.4c-2.9,3.5,0.4-0.4-4.5,5.4c0,0-0.3-0.2-3.2-2.5c-2.9-2.3-5.7-3.4-9.5-3.4
				c-7.9,0-14.9,7.1-15.4,15.8c-0.3,3.9,0.9,7.4,3.2,10c2.2,2.4,5.2,3.7,8.5,3.7c4.7,0,10.2-2.7,11.9-3.8l3.2-2l14.2,21.9l-2.8,2.2
				C261.8,369.1,252,372.4,242.3,372.4z"/>
			<path fill="#C10A27" d="M220.5,292.6H193l-21.6,27.8l2.1-27.8H89.2l-1.5,19.6h19.9l-4.1,54.7H126l4.1-54.7h19.4l-4.1,54.7h22.5
				l1.6-20.6l4.5-5.1l15,25.4l27.2,0.2l-22.8-38.6L220.5,292.6z M243.2,348.4c-4.5,0-8.5-1.8-11.4-5c-3-3.3-4.5-7.9-4.2-12.8
				c0.7-10.7,9.2-19.4,19.3-19.4c4.5,0,8.7,1.4,12.1,4.5c0,0,13-15.6,13-15.6c-6.3-5.6-14.6-8.9-24-8.9c-21.3,0-39.9,17.3-41.5,38.7
				c-1.6,21.4,14.4,38.7,35.8,38.7c9.3,0,18-3.3,25-8.7l-10.2-15.7C257.2,344.1,250,348.4,243.2,348.4z"/>
		</g>
		<polygon fill="#002D59" points="271.5,133.7 265,137.6 262.3,145.4 262.2,145.4 267.9,153.1 268.2,157.8 276.6,161.2 280.4,155.1 
			282,140.3 		"/>
		<polygon fill="#FFFFFF" points="269.4,209.1 272.2,205.9 277.4,203.5 273.5,207.9 		"/>
		<polygon fill="#FFFFFF" points="271.4,135.4 270.6,139.1 279.1,144 280.5,141.2 		"/>
		<g>
			<polygon fill="#002D59" points="183.5,269.8 182.8,261.3 178.6,257.8 174.6,256.3 174.5,256.2 163.3,258.4 161.2,262.8 
				158,264.7 157.7,271.9 157.2,275.5 159.3,278.7 161.7,285.3 163.7,292.1 166.6,292.8 167.1,294.8 168.3,295.9 170,298.3 
				175,297.5 184,293 184.2,288 189.2,286 189.2,276 			"/>
			<polygon fill="#FFFFFF" points="181.5,280.6 181.5,275.7 176.8,271.2 176.2,263 173.6,260.9 165.6,262.5 163.9,266 161.5,267.4 
				161.3,272.8 160.9,275.3 162.6,277.8 164.7,283.6 166.1,288.6 168.7,289.2 169.2,291.4 170.9,292.9 177.9,288.8 178.1,285.2 
				181.2,282.6 			"/>
		</g>
		<g>
			<polygon fill="#002D59" points="187.9,90.4 194.3,96 199.8,95.5 203.7,93.7 203.8,93.7 210.2,84.2 208.5,79.6 209.5,76 
				204.5,70.7 202.4,67.8 198.6,67 192.2,64.1 186.1,60.6 183.5,62.2 181.8,61.1 180.1,61.2 177.3,60.7 174.3,64.8 171.1,74.4 
				174.4,78.1 172.3,83 179.4,90.1 			"/>
			<polygon fill="#FFFFFF" points="181.6,81.4 185.1,84.9 191.6,84.8 197.8,90.1 201.1,89.7 205.7,82.9 204.4,79.3 205.1,76.6 
				201.4,72.6 199.9,70.6 197,70 191.4,67.4 186.9,64.9 184.5,66.3 182.7,65.1 180.4,65.2 178.4,73.1 180.7,75.8 180.4,79.8 			"/>
		</g>
		<g>
			<path fill="#002D59" d="M209.9,322.3c-10.1,0-16.4-4.5-20-8.3c-8-8.5-12-23.3-12-29.2c0-4,1.5-7.1,2.6-9.3c0.4-0.8,0.7-1.5,0.9-2
				c0.5-1.5,0.4-3.3,0.3-4.1c-1.8-1.2-4.3-4.2-3.3-9.3c0.5-2.6,1.3-4.9,2-6.9c1-2.9,1.8-5.3,1.8-8.1c0-4.3-2.2-10.9-2.6-12.2
				l-3.1-3.1c-1.5,0.8-5.4,2.5-9.3,2.5c-4.4,0-9.2,1.3-19.6,5.2c-11.2,4.2-23.8,8.5-32.2,8.5c-1,0-1.9-0.1-2.8-0.2
				c-8.8-1.3-13.3-5-21.2-17.2c-5.8-8.9-8.5-12.3-11.1-15.6c-0.9-1.1-1.8-2.3-2.8-3.6c-3.2-4.3-7-9.9-8.3-11.8
				c-2.4,1.1-9.9,4.5-12.3,6.1c-2,1.3-2.1,3.6-2.1,4.5c0.6,0.6,1.9,2.1,2.6,3.8c0.7-0.3,1.6-0.5,2.6-0.5c1.4,0,3.3,0.5,4.7,2.7
				c1.8-0.5,6-0.7,9.2,5.5c3.7,7.2,5.5,24.2,2.2,30c-3,5.3-8.7,7.9-12,8.7c-2.4,0.6-4.4,0.6-4.4,0.6c-0.4,0-10-0.3-16.5-7.1
				c-1.9-2-2.9-4-2.7-5.8c0-0.8,0.3-1.5,0.6-1.9c-0.9-0.8-2.2-2.4-2.6-4.8c-0.5-3.2-3.4-10.2-7.2-12c-0.8-0.4-1.9-0.9-3.1-1.3
				c-4.7-2-11.1-4.7-13.8-8.5c-3.3-4.6-4.1-12.7,0.3-18.2c3.7-4.7,5.5-7.4,5.8-18.4c0.3-11.5,3.1-26.4,5.9-31.2
				c1.6-2.8,4.8-5.2,7.6-7.4c1.6-1.2,3.9-2.9,4-3.6c0.1-0.7,0.1-2.1,0-3.7c-0.2-3.3-0.4-7.8,0.8-11.8c1.9-6.4,5.7-13.3,7.7-16.1
				c2.7-3.7,7.3-6.6,8-7l15.9-13.2c0.1,0,3-2.3,7.3-5.3c1.4-1,2.8-1.7,4.2-2.4c3.5-1.8,7.5-3.8,15.2-12.5c1-1.1,2.2-2.8,3.6-4.7
				c5.5-7.4,13.9-18.7,23.4-18.7c11.6,0,21,8.1,26.6,13c3.7,3.2,7.1,5.2,10.4,7.1c1.6,0.9,3.1,1.8,4.5,2.8
				c4.6,3.1,20.2,13.9,25.8,23.3c4.1,6.9,5.2,7.6,6.1,8.3c0.3,0.2,0.7,0.5,1.2,1c1.7,1.7,3.2,4.5,3.4,5l11.7,18
				c0.2,0.3,6.8,8.9,10.1,16.4c2.9,6.7,9.6,17.2,10.7,19.1c1,0.4,4,1.5,5.5,2.1c0.1,0,0.2,0.1,0.6,0.1c0.6,0,1.5-0.1,2.4-0.2
				c1.2-0.2,2.5-0.3,3.8-0.3c1.5,0,2.8,0.3,3.8,0.8c0.7,0.4,1.3,0.5,1.8,0.5c0.8,0,1.2-0.4,1.3-0.6c0.6-2.1,0.9-5.2-0.1-5.7
				c-1.4-0.8-5.6-3.2-10-5.8c-2.6-1.5-5.4-3.1-7.7-4.5l-0.9-0.5c-6-3.4-9.5-5.5-10.8-11.6c-1.2-5.8,1.1-10.3,2.7-13.3
				c0.2-0.3,0.3-0.6,0.4-0.8c1.3-2.7,2.1-4.7,1.3-6.1c-1.3-2.3-1.5-6.5,1.3-10.1c0.7-0.9,1.4-1.6,1.9-2.2c1.7-1.8,2.8-2.9,3.1-7.3
				c0.3-3.3,1.3-4.9,3.2-4.9c1.5,0,3.3,1.3,5.4,3.9c3.2,4,5.8,16.5,3.6,20.8c-2.3,4.5-6.2,6.3-8.8,6c-1.6-0.2-5,2.1-6.2,5.6
				c-1.1,3.2,0.1,9.2,5,11.8c2,1,4.4,1.7,7,2.3c3.9,1,8.3,2.1,12.2,5c6,4.6,9.5,9.8,11.1,17.1c1.5,6.5,2.2,9.1,4.6,12.7
				c0.5,0.8,1.2,1.7,2,2.6c2.9,3.7,6.4,8.3,6.2,13.7c-0.2,5.8-2.6,18.5-3.1,21.5l0.8,2.5l-15.7,0.6l-6.3,2.9l-3.4,14.5l-0.1,0.2
				l-17.7,23.6l-0.8-0.9c0-0.1-4.7-5.5-9.5-8.3c-3.1-1.8-6.7-3.2-9-4c1,1.9,2.8,4.8,5.1,7.7c0.5,0.6,1,1.2,1.4,1.8
				c3.3,4,5.6,6.9,5.8,10.5c0.2,4-1.5,6.5-2.6,7.7c1,0.7,2.6,1.9,3.6,2.9c1.5,1.5,5.2,6.2,6.5,16.1c1.4,10.3,0.6,16.4,0,20.1
				c-0.8,4.4-4.6,9.7-6.9,11.4c-2,1.5-5.7,3-8,3c-0.4,0-0.7,0-1-0.1c-1.5-0.4-3.2-1.6-4.4-2.6c-0.6,1.2-1.8,2.8-3.7,2.8L209.9,322.3
				z"/>
			<g>
				<path fill="#C10A27" d="M43.5,245.2c0.5-0.9,3.2,2.8,4.2,2.7c1-0.2,2-1.2,2.7-0.5c0.7,0.7,3,0.7,3,0.7s1.2,3.2,2.2,2
					c0,0-0.5,1.7,0.5,3.2s1.8,3.7,1.8,3.7s-1.8-0.7-2.8-1.2s-1.8,0.7-1.8,0.7s-4.8-2.3-6.7-4.2C44.6,250.4,42.3,247.6,43.5,245.2z"
					/>
				<path fill="#C10A27" d="M57,248.1c0,0-2.5-2,0.5-2.7c3-0.7,1.8-2,1.2-3s-0.3-3.7,3-1.5c3.3,2.2,6.5,2.2,6.5,2.2s0.7,2.7,2,3.7
					s2.3,3.2,1.3,4.5s-2,3-3.5,2.8c-1.5-0.2-2.8,0.2-3.7,0.8c-0.8,0.7-1,0-3.3-1.2C58.6,252.6,53.3,250.9,57,248.1z"/>
				<path fill="#C10A27" d="M65.6,222.4l-0.3-5c0,0,4.7-1,6.7,2.2c2,3.2,2,3.2,2,3.2S69,220.1,65.6,222.4z"/>
				<path fill="#C10A27" d="M63.3,220.6c-0.5,1.3-2.5-0.5-2.5-0.5s-0.5,2.5-2.8,1.7c-2.3-0.8-3.5-4.2-6-7.8c-2.5-3.7-3.2-5-1-4.5
					c2.2,0.5,3.7,4.2,4.7,5.7s3.3,2,3.3,2s1.8-2,3.3-0.7C63.8,217.7,63.3,220.6,63.3,220.6z"/>
				<path fill="#C10A27" d="M54,245.6h-1.7c0,0-1.3-0.3-2.7-2.2c0,0-2,1-5-0.2s-3.5-1.7-3.7-4.7c-0.2-3-1-9.2-4.7-11.7
					c-3.7-2.5-7.5-6.5-9.7-6.2c-2.2,0.3-8.3-1.2-11-6.7s-0.5-11.8,1.2-13.7c1.7-1.8,2.7-0.3,4.3-3.3c1.7-3,2-5.8,1.3-8.7
					c-0.7-2.8-0.2-12.2,1.5-21.2c1.7-9,3.5-15.7,6.7-18c3.2-2.3,3-1.8,7.3-7.3c4.3-5.5,11.5-16.7,11.5-16.7l-2.8-0.7
					c0,0-2.2,7.2-4.2,5c-2-2.2-0.2-12,2.7-16.5s8.5-9.5,8.5-9.5s6.7,9.5,14.7,14s0,0,0,0s19.5,3.2,16.7,21
					c-2.8,17.8-8.2,29.3-7.2,36.8c1,7.5,5.8,16.5,6.5,20.5c0.7,4-1.5,3.8-4.5,2c-3-1.8-6.2-5.5-8.5-9.8c-2.8-5.3-8.5-17.2-7.7-23.2
					c0,0-4.3,0.7-5.7,0.3c-1.3-0.3-4-5.3-4-5.3s0.2,9.3-2.8,16.3s-6.3,13-8.7,16c-2.3,3-6.8,6.2-6.8,6.2s3,2.7,3.3,7.8
					c0.3,5.2,0.2,8-2.7,9.7c-2.8,1.7-8,2-6.5,3.7c1.5,1.7,5.5,2.3,9.8,1.5c4.3-0.8,8,1.5,10.5,4s7.3,5.3,7.7,8.3
					c0.3,3-0.2,4.2-0.7,5c-0.5,0.8-1.3,2-1,3.2c0.3,1.2,0,1.8-1.2,1.8C53.8,243.4,54,245.6,54,245.6z"/>
				<path fill="#C10A27" d="M43.6,206.6c0,0,7.8-7.5,9.8-10s4.3-6.5,4.3-6.5s2.2-1,3,0.5c0.8,1.5,2.5,3.2,1.3,4
					c-1.2,0.8-5.2,2.2-7,4.8c-1.8,2.7-5,5.3-7.3,7C45.5,208.1,43.6,210.2,43.6,206.6z"/>
				<path fill="#C10A27" d="M208.8,178.9l2.2-0.5c0,0,2.3-12.7,1.8-17.3c-0.5-4.7-3-10.7-7.3-8.2s-5.2,4.8-4.5,8.5
					c0.7,3.7,0.5,5.3,0.5,5.3l-4,2.3c0,0,0.2-6.5-3.5-8.8c-3.7-2.3-7.7-4.3-11-1.2c-3.3,3.2-5,5.3-5,9.7s-0.8,11,0.7,16.2
					c1.5,5.2,3.8,14.3,3.8,14.3l-1.2,1.5c0,0-1.5-5.5-4.2-5.2c-2.7,0.3-2.8,5-2.8,10.3c0,5.3,0.7,7.3,1.7,7.8s1,0.5,1,0.5l0.5,1.8
					c0,0-3,3.2-1,7.7c2,4.5,7.2,7.7,7.2,7.7l-1.2,3c0,0,1.2,3.5,1.5,8.7c0.3,5.2-1,9.7-1.7,13.8c-0.7,4.2,1.3,9.7,4,11
					c2.7,1.3,6.7,2.7,6.7,2.7l-0.7,1l-2.8-1c0,0-3.5,4-4.8,10.5c-1.3,6.5-0.2,9.2,0.7,10.3c0.8,1.2,2,0.5,1.7,2.3
					c-0.3,1.8-0.8,5.7,0.3,6.3c1.2,0.7,2.2,0.5,2,3.3c-0.2,2.8,0.8,7.2,3.7,10.2c2.8,3,6.2,3.8,7,1.8c0.8-2,2.2-11,2.2-11l1.3-1.8
					c0,0,0,5.7,0,8.8c0,3.2,0,4.5,1.8,5.3c1.8,0.8,6,2.5,7.8-0.5s1.2-16-0.3-22.5s-0.3-8.5-2.3-9.5s-2-1-2-1s0.3-2.2,2.2-2.2
					s3.2-0.2,4.5-1.2s2-1.7,2-1.7l0.3,2c0,0-2.2,1-2.2,3.3c0,2.3,3.8,8.3,4.5,14c0.7,5.7-0.2,20.8,2.5,20c2.7-0.8,5-10,5-12.8
					c0-2.8-6.2-30-6.2-30l-1.3-0.8c0,0-0.8,1.5-3.3,3s-6.8,2.3-6.8,2.3l-2-2.3c0,0-0.8,1.8-2.2,2c-1.3,0.2-1.3-1.8-2.7-1.5
					c-1.3,0.3-2.5-0.5-2-2c0,0-3.7-0.5-2.8-1.7c0.8-1.2,3.2-0.7,3.2-0.7l1.2-1.3c0,0,1.5,0,1,1.5s0,2.3,2.2,1.7
					c2.2-0.7-1.2-3.3,1.2-3.8c2.3-0.5,1.3,5.2,4.8,3c3.5-2.2,6.7-8.5,5-8.5s-1.7-1.8-1.2-3.7c1.7-5.5-2.8-8.3-4.8-10
					c-2-1.7-7.8-7.2-9-13.5c-1.2-6.3-4-8.5-4-8.5s1.7-2,1.7-4.7c0-2.7,0.5-9.7-2.3-13.2c-2.8-3.5-6-4.7-6-4.7l-0.2-1.2l5.2-2.3
					l1.5-2.5c0,0-1.5-1.5-3-2s-0.3-2.8,0.7-5c1-2.2-0.3-1.8,1.2-5.3s1.8-7.2,1.8-7.2l2-1.2c0,0,1.7,5.7,2,11.5
					c0.3,5.8-0.8,10.3,1,9.7c1.8-0.7,3.7-8,3.7-12.3c0-4.3-0.7-15.8-1-17.5c-0.3-1.7,2.8-2.5,3-1.2
					C208.8,172.2,208.8,178.9,208.8,178.9z"/>
				<path fill="#C10A27" d="M203.6,209.4c0,0-0.3,1.8,1.2,2.3s1.7,5,1.7,6.8c0,1.8-1,4.5,0.2,4.8c1.2,0.3,2.8-2.8,3-5.7
					c0.2-2.8,0-6.8-2-7.8C205.6,208.9,203.6,209.4,203.6,209.4z"/>
				<path fill="#C10A27" d="M206.8,233.1c0,1.7,1.3,1.8,2.5,1.5c1.2-0.3,1.3-2,1.2-3.5s-2.2-2.2-3.3-1.5
					C206,230.2,206.8,231.4,206.8,233.1z"/>
				<path fill="#C10A27" d="M210.1,238.6c1.3-0.5,2.8,2.5,5.2,6.7c2.3,4.2,7,10.2,8.7,13c1.7,2.8,1,5.3-0.5,6.8s-3.3,2-3.7-2.8
					c-0.3-4.8,0.3-4.7,0.3-4.7s-2.3-0.8-4.3-6.8s-3.3-6.7-5-8.8C209.1,239.7,210.1,238.6,210.1,238.6z"/>
				<path fill="#C10A27" d="M233.3,241.6c0,0-2.2-3.8-4.5-6.5c-2.3-2.7-6-5.5-6-5.5s2.5-3,5.3-1.2c2.8,1.8,4.2,4,4.8,5.8
					c0.7,1.8,3.5,1.5,3.5,1.5l1,2.2C237.5,238,235.3,242,233.3,241.6z"/>
				<path fill="#C10A27" d="M246.8,236.1c-0.5-0.2-1.8-6.3-2-11.7c-0.2-5.3,1.7-8.3,4.5-8.7c2.8-0.3,5.7,0,5.5,1.5
					c-0.2,1.5-1.7,10.3-3.2,12.5C250.1,231.9,246.8,236.1,246.8,236.1z"/>
				<path fill="#C10A27" d="M261.4,210.2c0,0-3.3-2.7-4.5-8.3c-1.2-5.7-1.8-11.2-1.8-11.2l1.5,1.7c0,0,0.8,4.7,2.3,7.3
					c1.5,2.7,3.8,6.3,6.2,8c2.3,1.7,5.3,2.2,4.3,2.8C268.4,211.2,261.4,210.2,261.4,210.2z"/>
				<path fill="#C10A27" d="M273.5,208.2c0,0-3.5,0.8-6.2-4.8c-2.7-5.7-3.8-14.8-3-19.7c0.8-4.8,4.7-5,7.5-3c2.8,2,4.8,10,4.3,15.2
					C275.6,201.1,273.5,208.2,273.5,208.2z"/>
				<path fill="#C10A27" d="M234.5,161.7c0,0,1.5-1.2,3.3,0.3c1.8,1.5,4,1.7,7.2,1.5c3.2-0.2,8.8,0.8,8.8,0.8l-1,1.7
					c0,0-4.5-0.3-7.8,2.7c-3.3,3-3.8,3.7-3.8,3.7s-3.5-3.3-3.8-5.2C237,165.4,236.5,163.4,234.5,161.7z"/>
				<path fill="#C10A27" d="M230,114.4c0,1.7-0.2,3.5-1.7,5s-4.2,8-1.5,13c2.7,5,9.2,9.5,19.5,12.7c10.3,3.2,10.7,5,10.7,6.8
					c0,1.8-1.7,5.3,0,6.2c1.7,0.8,2,1.2,3,0.2s2.5-7.2-0.3-9.8c-2.8-2.7-9-5-16.3-7.3c-7.3-2.3-9.3-3.5-11.8-6.3
					c-2.5-2.8-5.8-9.2-1.5-14c4.3-4.8,4.3-4.8,4.3-4.8S230,108.1,230,114.4z"/>
				<path fill="#C10A27" d="M232.1,110.7c-1.3-0.8-2.5-3.7-1.3-5.5c1.2-1.8,3.2-3,4.5-6.2c1.3-3.2,1.3-10.2,1.8-9.2s1.3,6.5,0.8,8.7
					s-4.2,4.5-4.7,6.5s-0.2,3.3-0.2,3.3L232.1,110.7z"/>
				<path fill="#C10A27" d="M235.3,109.6c0,0-1.7-1.3,0.2-2.8c1.8-1.5,2.3-2.3,2.8-4.5l2-3.8c0,0,1.8,3.8,2,6.5
					c0.2,2.7-1.3,4.2-1.3,4.2l-1.5-0.7c0,0,1.3-3.3,0-2.7c-1.3,0.7-2.7,1.2-2.8,2.3S236,109.9,235.3,109.6z"/>
				<path fill="#C10A27" d="M237.3,111.7l0.7-1.5c0,0,2.8,2.3,5,0c2.2-2.3,1.7-6.8,0.5-10.5c-1.2-3.7-1.8-4.8-1.8-4.8
					s5.3,7.2,4.5,13.3c-0.8,6.2-4.7,8.3-5.2,7.3s-0.8-2.2-1.8-2.7C238.1,112.4,237.3,111.7,237.3,111.7z"/>
				<path fill="#C10A27" d="M224.6,168.2c0.8-2,2.5-0.5,2.8,2.7c0.3,3.2,0.5,14,0.2,17.3c-0.3,3.3-3.2,8.3-3.2,8.3s-2.7-2.8-0.7-5.2
					s2.7-3.7,2.5-10C226.1,175.1,224.6,168.2,224.6,168.2z"/>
				<path fill="#C10A27" d="M229.3,172.1c0,0,1.7,1.3,1.5,7c-0.2,5.7,0.5,12.3-0.3,15c-0.8,2.7-1.3,1.2-1.8-0.3s0.5-3.7,0.8-6.7
					s0.3-11-0.3-12.3C228.5,173.4,229.3,172.1,229.3,172.1z"/>
				<path fill="#C10A27" d="M232.5,177.4c0,0,1.3,1,1.3,2.7c0,1.7,0.3,7.3-0.5,7.5c-0.8,0.2-1.7-1.7-1-3.7S231.6,178.4,232.5,177.4z
					"/>
				<path fill="#C10A27" d="M71.8,88.2c0,0,3.3-3.2,8.8-4.7s6.3-3.3,8.2-5.3c1.8-2,5.2-3.3,9.2-8.5c4-5.2,11.2-14.5,13.7-17.7
					s7-8.5,15.2-6.5c8.2,2,16,9.7,27.2,17.8c11.2,8.2,28,21.8,28,21.8l-1,1.7c0,0-8.6-7.6-16-13c-4.4-3.2-6.6-3.3-11-6.7
					c-3.5-2.6-4.9-6-7.8-7.8c-4.1-2.5-7.2-3.9-8.5-3.1c-5.2,3.3,1.8,11.5,4.2,12.2c2.3,0.7,4,0,9,2.5s13.8,9.5,18.7,12.7
					c4.8,3.2,10.7,7.3,10.7,7.3s-2.5,2-4.8,0.8c-2.3-1.2-3-2.5-5.3-3.5c-2.3-1-4.2-1.8-4.7-0.2s1.5,2,2.2,3.2c0.7,1.2,0,2.5,0,2.5
					s-2.7-0.3-4.3-3.5c-1-1.9-3.4-5.4-6.5-9.2c-2-2.4-3.6-5-8-7c-3.1-1.5-5-0.8-6.3-0.3c-3.5,1.2-2.4,6.1-1.8,7.5
					c0.8,2,2.3,5.3,5.3,7.2s4.8,3,4.8,3l0.2,2.8c0,0-15.3-5.8-31.8-0.3l-17.5-1.8c0,0,1.8-4-4.5-6.2c-6.3-2.2-10,10.7-10,10.7
					S75.3,96.1,71.8,88.2z"/>
			</g>
			<g>
				<path fill="#002D59" d="M25.4,188.1l0.3-3.5c0,0,4.5-7.2,5-14.2s1.3-9.5,1.3-9.5s4.8-5.3,5.5-3.5s-3,15-5.8,21.3
					C28.9,184.8,25.4,188.1,25.4,188.1z"/>
				<path fill="#002D59" d="M114.1,90.3l1.5-2.3c0,0-1-8.3-2.5-11.8s-2.5-6.5-2.5-9.3s-1-3.2-2.3-1.8c-1.3,1.5-2.3,6.3-0.5,7.5
					s3.3,6,4,9.3S113.4,90.3,114.1,90.3z"/>
			</g>
			<g>
				<path fill="#002D59" d="M225.1,96.1c0.5-7-1.7-18.6-3.4-27.9l-0.1-0.4c-1.5-8-2.4-10.3-4.1-10.3c-1.2,0-1.9,1.4-2.6,3.4
					c-0.7,2.2-1.2,7.2-1.8,12.9c-0.9,8.6-2,19.2-4,21.8c-8.1,10.6-21.9,12.3-25.4,12.6c-0.5-2.1-2.7-6.8-10.8-8.7
					c-8.8-2-16.8-3.3-18.1-3.5c-1.2-0.7-7.9-4.6-16.5-5.3c-0.9-0.1-1.9-0.1-3-0.1c-7.5,0-14.6,2-16.3,2.5c-1.4-0.6-6.4-2.6-14.1-2.2
					c-7.7,0.4-11.5,4.2-12.7,5.5c-2.3-0.1-12-1.1-18.1-7.4C67.4,82.2,63,68.8,61.6,58.7c-0.5-3.4-0.6-6.5-0.8-9.1
					c-0.3-5.2-0.5-8-2.6-8.3l-0.2,0c-0.6,0-1.3,0.4-2,1.2c-3.5,3.7-9.2,16.7-7.9,41.9c0.9,17.8,11.8,28,20.8,33.4
					c-1.9-0.5-3.5-0.9-4.3-1.1c-1.4-0.3-2.6,0.1-3.3,1.3c-1.3,2-0.8,5.9,1.2,10.1c3.8,7.9,8.2,11.8,13.2,11.8h0c0.3,0,0.5,0,0.8,0
					c1-0.1,2-0.1,2.8-0.1c1.6,0,2.4,0.2,2.9,0.3c0,1.7,0.1,6.8-0.3,11c-0.4,4.7-2.1,8.3-3.4,11l-0.3,0.7c-0.2,0.4-0.4,0.8-0.6,1.2
					c-1.2,2.3-2.5,4.6-0.7,10.5c1.9,6.3,7.8,17.9,10.5,19.1c1.5,0.7,2.7,1.1,3.3,1.4c0.5,1.7,1.8,5.8,3.5,7c0.3,0.2,0.5,0.4,0.6,0.5
					l-0.2,0.1l-0.1,0.4c-0.1,0.8-1,8.3,1.5,11.3c0.6,0.8,1.2,1.4,1.6,1.9c1.2,1.4,1.9,2.2,2.2,3.2c0.5,1.7,2.5,4,3.1,4.7
					c0.5,1.6,3.5,10,11.9,10.3c3.9,0.1,6.5-0.4,8.6-0.9c2.6-0.6,4.7-0.8,7.3,0.1c4,1.4,6.7,2,9.2,2c2,0,3.8-0.4,5.6-1.3
					c3.8-1.9,8.4-6.4,9.4-7.3c1.2-0.5,6.1-2.8,9.6-10.7c3.3-7.6,2.5-14.3,2.2-16.1c0.9-1.2,3.6-5,4.7-9.5c1.4-5.9,3.3-9.4,4.4-10.9
					c1.7-2.6,1.9-10.8,0.9-15.5c-0.8-3.6,0.1-9.8,0.4-11.7c0.8-0.2,2.5-0.5,4-0.5c1,0,1.8,0.1,2.4,0.4l0.4,0.2
					c1.4,0.7,3.6,1.7,6.5,1.7c3.3,0,6.9-1.3,10.7-3.9c8.9-6.1,15.6-15.9,14.6-19.3c-0.2-0.8-0.9-1.8-3-1.8c-1.5,0-3.6,0.5-6.1,1.1
					c-2.2,0.5-4.7,1.1-7.3,1.5c-2.5,0.3-4.7,0.4-6.1,0.2c5.6-2.1,18.2-7.2,22.4-11.2C221.3,115.1,224.7,102.7,225.1,96.1z"/>
				<path fill="#C10A27" d="M173.6,149.6c-2.8,1.8-4.8,3.3-9.3,3.8s-7.5,1-9.5,1.3s-4.5,0.8-4.5,0.8s-3.8-6.5-4-7.8l-1.5,0.3
					c0,0,0.8,3.8-1.5,3.8s-4.3,1-6.5-4s-2.5-7.8-2.5-7.8l-2.5-2.3c0,0-0.5,5.8-2,10.3s-3,5.8-5,4.5s-0.5-4.5-0.5-4.5l-2.3,0.5
					c0,0-1.5,4.3-4.3,5s-7.8-0.3-11.3-1.5s-9.5-3.8-13-6.5s-4-5.5-4-8l2-7.8c1.4-4.4,3.3-13,3.3-13s-2.3,6.8-10.3,4.5
					c-4.5-1.3-12.3-5.6-17.2-9.1c-7.3-5.2-13.8-13.8-15.8-28.1c-4-29,5-39.7,6.4-40.5c0.5,0.6,0.7,3.7,0.8,6.4
					c0.1,1.3-1.8,20.9,0.8,30.1c2.5,8.8,7,12.9,10.5,16.5c7.5,7.7,14,7.3,18,8.5s1.5,4.3,4,4.5s2.3-8.8,2.3-8.8
					c0,0,4.1-5.8,12.3-6.3c8.3-0.5,16.5,5,16.5,5l1.5-1.8c0,0-1.8-4.3,14.5-2c8.8,1.2,11,7.5,12.5,7.8s1.4-3.5,11-1.3
					c2,0.5,2.1,3.5,4.3,3.5c5.3,0,9.5,2.8,9.8,6.5c0.3,3.5,0.3,7.3-0.8,8.3s-2.5,2.5-2.5,2.5s4.5,3.5,4.3,9.8
					S176.4,147.8,173.6,149.6z"/>
				<path fill="#C10A27" d="M70.9,120.8c3,2,4,4,5.5,5.5s7.3,4.5,7.3,4.5l-1.8,1.5c0,0-7.5-2.8-10.5-5.5s-3.3-3.9-4.3-5
					C65.4,119.8,67.6,118.3,70.9,120.8z"/>
				<path fill="#C10A27" d="M72.9,136.3c-3.9-1.2-7.4-4.5-9-7.8c-1.9-4-1.6-8.5-0.9-9.6c0.3-0.4,0.5-0.5,0.8-0.5
					c0,0,1.6,8.8,3.4,10.3s0.8-0.8,0.8-0.8s2,0,4.5,2.8s7,2.5,8.8,3.8s1.3,2,1.3,2S77.5,137.7,72.9,136.3z"/>
				<path fill="#C10A27" d="M139.6,230.4c-0.5,2.2-4.7,1.9-6,0.3c-2.3-2.8-2.3-3.2-5.3-2.8c-2.2,0.2-6.8,2.7-9.5,3.5
					c-2.7,0.8-4.8-0.2-6.5-1.2s-2-2.8-2-2.8s4.3,1,8.2,0.2c3.8-0.8,8.2-2.2,11.7-1.8C133.6,226.1,140.1,228.2,139.6,230.4z"/>
				<path fill="#C10A27" d="M173.6,167.1c1,4.4-1.3,10.6-2.5,12.5c-1.1,1.6-5.1,6.2-6.3,12.5c-1.5,8-4,9.7-4,9.7
					c0,0.1,0.5,3.6-2.3,12c-1.5,4.6-4,6.4-6.5,6.3c-1.9-0.1-5.8-4-5.8-4l-1.8-0.3c0,0,1.4,2.7,4,5.3c0.7,0.7,1.1,1.4,2.3,1.8
					c2.4,0.8,5.9,0.9,5.9,0.9l-1.3,1.3c0,0-2.8,1-5.3,1.3c-2.7,0.3-5.8,0.8-10.3-0.3c-5.3-1.3-8.8-4-10.5-4c-2.2,0-6.8-0.5-9,1.3
					c-1.2,1-3.4,1.5-4.8,1.5c-0.8,0-5.6,0.6-9.3-1c-2.7-1.2-4.6-4.5-4.8-5c-0.4-1.5-1.3-2.5-2.6-4c-0.5-0.5-1-1.1-1.6-1.9
					c-1.5-1.9-1.3-7.2-1.1-9.4c0.1-0.1,0.9-1.9,1.7-3.7c0.1-0.3,0-2,2.5-3.6c1.1-0.7,3.2-0.6,4.7-1.2c2-0.7,3.4-2,3.5-2.2
					c0.4-1-2.9,0.6-5.7,1.5c-1.7,0.6-3.2,0.4-3.5,0.7c-1.4,1.5-3.2,4.8-4.2,4.2c-1-0.7-2.4-3.2-3-5.4l-0.1-0.5l-0.5-0.2
					c0,0-1.5-0.5-3.7-1.5c-1.7-0.8-7.3-11-9.5-17.9c-1.5-5-0.6-6.8,0.5-8.9c0.2-0.4,0.5-0.9,0.7-1.4l0.3-0.7
					c1.3-2.8,3.1-6.6,3.5-11.7c0,0,0.8-8.6,2.8-7.8c2.5,1,8.8,5.5,8.8,5.5s-3.3,5-0.3,6s7.8,2,10,5s2.8,7.8,2.8,7.8l1.3,0.3
					c0,0,1-1.3,2.3-1.8s2-0.3,2-0.3l1-1c0,0-2.3-1.8-3-3.8s1.3-2.8,3-2.8s3.8-3.1,8.5-2.6s5.3,1.1,5.5,3.4s-1.8,3.3-1.8,3.3
					s-0.2,0.7,0.5,1c0.8,0.3,2.5,0.4,4,0.3c3-0.3,6.3,0.3,6.3,0.3l0.8-1.8c0,0-4-1.8-3-3.5s2-2.5,5.5-2.3s7.5,2.3,7.5,4.8
					c0,0,1,3.5-0.3,4s-2.5,0-3,0.8s0.8,7.5,1,9s1.3,2.3,1.8,1s1.5-1.8,2.5-2s2-1.8,4.3-3.5s4-0.3,2,1.5s-3.8,5.5-4.8,7
					c-1,1.5-4.8,5-4.8,5l-0.3,2.8c1.8,1.5,1.5,3.8-0.3,4.8c-1,0.6-1,3-1,3s0,0,1.8,0.8c0,0,3.8,0.5,7.5,1.5s5.5,2.3,5.5,2.3
					s0.3-1.5,0.8-4c0.5-2.5,0.5-7.5,1.5-10s4.9-5.3,6.4-8.6s0.9-7.8,0.2-9.5s-2.7-3.3-1-5.2c1-1.1,5.4-3.5,6.3-1
					C174.8,161.9,173.4,165.9,173.6,167.1z"/>
				<path fill="#C10A27" d="M195.1,134.6c4.3-0.5,13.6-3.6,14-3.1c1.7,2.1-5.7,7.9-7.5,9.3c-3.3,2.5-8.5,4.5-8.5,4.5
					c-7.3,1.8-9.3,0.8-10.8-0.8s2-6,3.5-7.8S190.9,135.1,195.1,134.6z"/>
				<path fill="#C10A27" d="M209.4,114.6c0,0-7.5,9.3-17.3,9.5s-8.5-7.5-8.5-7.5c7.9-1.9,22.2-11.3,28.5-19.5
					c2.1-2.8,1.7-11.4,2.9-22.9c0.6-5.4,1.1-10.5,1.8-12.5c0.3-0.9,0.5-1.5,0.7-1.8c0.4,0.8,2.1,13,2.1,13c1.7,9.2,2.2,15.2,1.8,22
					C220.9,101.4,214.5,109.7,209.4,114.6z"/>
				<path fill="#002D59" d="M101.8,200.7c0.8-0.8,2,1.2,4.8-0.5c2.8-1.7,4.5-2.3,4.5-2.3s0.2,2.5-0.5,5.2c-0.7,2.7-2.3,2.5-3.7,4.5
					c-1.3,2-1,6.8-1,6.8s-1.7,0.8-4.5-1.7C98.6,210.2,98.6,203.9,101.8,200.7z"/>
				<path fill="#002D59" d="M113.6,195.1c0,0,4,0.7,4.7,1.7c0.7,1,4.7,5.2,4.7,5.2s-0.5,1.8-1,3.7s-2.3,1.3-2.3,1.3s1-2.2,0-4.5
					c-1-2.3-2.3-4.5-3.7-5.2C114.6,196.6,113.6,195.1,113.6,195.1z"/>
				<path fill="#002D59" d="M140.8,195.9l0.7,1c0,0-3.3,2.8-3.8,5.8s-0.7,4.8-0.7,4.8s-1.8-2.2-2.7-1.2c-0.8,1-1.3,7-1.3,7l-1.2-0.7
					c0,0-0.3-5.7,0.2-7.7s1.2-2.3,1.2-2.3s2.2-0.8,3.5-3C138,197.6,140.8,195.9,140.8,195.9z"/>
				<path fill="#002D59" d="M146.1,198.7c0,0,2,0.7,4.8,2c2.8,1.3,4.5,1.7,5.5,1.5c1-0.2,1.2,0.5,1.2,2s0,4.3-0.3,5.7
					c-0.3,1.3-2.8,5.8-2.8,5.8s-2-0.8-2.3-2.7c-0.3-1.8-1.8-4.7-3.3-5.3c-1.5-0.7-3.3-2.7-3.5-3.7
					C145.1,203.1,146.1,198.7,146.1,198.7z"/>
				<path fill="#002D59" d="M96.5,182.4l1.7-1.3c0,0,0.5-6.8-2.2-10.2c-2.7-3.3-4.5-5-5.2-7.7c-0.7-2.7,0.2-11.5,0.2-11.5l-1-1
					c0,0-1.3,3.7-1.5,5.5c-0.2,1.8,0,5.7-0.3,6.8c-0.3,1.2-0.5,4-0.5,4s4.8,2.8,6.3,5.2C95.5,174.6,97,178.9,96.5,182.4z"/>
				<path fill="#002D59" d="M157.8,138.1c0,0-1.7-4.2-1.5-8.2c0.2-4,1-5.2,3.2-5.7c2.2-0.5,6.3-1.7,7.3-2.2s2.7-0.5,2.5,0.7
					c-0.2,1.2-1.2,2.2-1.2,2.2l-0.2,8.8c0,0-1.9-0.4-4.2,0.5C160.8,135.4,157.8,138.1,157.8,138.1z"/>
				<path fill="#FFFFFF" d="M153.5,156.8c0,0,1-1.1,2-1.1c0,0,0.8,3.3,4.8,2.9s3.9-3.3,3.9-3.3l2.8-0.8c0,0-1.3,5.4-6.5,5.6
					S153.5,156.8,153.5,156.8z"/>
				<path fill="#FFFFFF" d="M107.5,153.6c0,0,1.9-0.1,1.9,1.4c0,0-1.6,2.5-6.4,1.6c-4.7-0.9-5.9-4.3-5.9-6l2.5,0.9
					c0,0-0.3,3.1,3.4,3.9S107.5,153.6,107.5,153.6z"/>
			</g>
		</g>
		<g>
			<polygon fill="#002D59" points="266.1,248.8 262.6,244.6 262.1,226.8 257.9,224.7 252.6,226.7 245.5,226.5 243.3,230.8 
				240.6,227.9 225.4,239 224.1,246 231.6,261.7 228.6,263.6 222.9,274 227.5,279.2 241.2,274.9 245.8,275.1 248.1,272.3 
				254.2,271.4 257.1,272.3 266,253.5 			"/>
			<polygon fill="#FFFFFF" points="258.4,249.4 258.4,237.1 254.3,236.4 251.2,238.2 244.7,238.7 241.5,238.7 229.6,247.3 
				236,260.8 232.5,263 228.4,270.5 230.9,273.2 241.8,269.7 247.1,267.6 253.4,266.7 254.8,267.2 261.3,253.3 			"/>
			<polygon fill="#FFFFFF" points="226.4,244.3 227.1,239.5 239.9,230.2 240,234.9 			"/>
			<polygon fill="#FFFFFF" points="246.2,229.1 245.7,233.8 251.9,233.9 252.3,228.8 			"/>
			<polygon fill="#FFFFFF" points="257.4,227.5 256.7,231.8 260.5,232.8 260.7,228.8 			"/>
		</g>
	</g>
</g>
<g id="Layer_5_copy">
</g>
<g id="Layer_2_copy">
</g>
<g id="Layer_6_copy">
</g>
<g id="Layer_7_copy">
</g>
<g id="Layer_4_copy_2">
</g>
<g id="Layer_0_xA0_Image_copy_2">
</g>
<g id="Layer_5_copy_2">
</g>
<g id="Layer_2_copy_2">
</g>
<g id="Layer_6_copy_2">
</g>
<g id="Layer_7_copy_2">
</g>
</svg>
