<?xml version="1.0" encoding="UTF-8" standalone="no"?>
<svg width="175px" height="56px" viewBox="0 0 175 56" version="1.1" xmlns="http://www.w3.org/2000/svg" xmlns:xlink="http://www.w3.org/1999/xlink" xmlns:sketch="http://www.bohemiancoding.com/sketch/ns">
    <!-- Generator: Sketch 3.3 (11970) - http://www.bohemiancoding.com/sketch -->
    <title>logo-en</title>
    <desc>Created with Sketch.</desc>
    <defs></defs>
    <g id="Page-1" stroke="none" stroke-width="1" fill="none" fill-rule="evenodd" sketch:type="MSPage">
        <g id="Desktop-HD" sketch:type="MSArtboardGroup" transform="translate(-633.000000, -553.000000)">
            <g id="logo-en" sketch:type="MSLayerGroup" transform="translate(633.000000, 553.000000)">
                <path d="M51.865942,4.31581818 L51.865942,15.1047273 L33.7166667,33.2894545 C32.3344203,34.6970909 30.4132246,35.5701818 28.2891304,35.5829091 C24.0384058,35.6083636 20.5751812,32.1694545 20.5472826,27.9070909 C20.5371377,25.774 21.3880435,23.8394545 22.7702899,22.4318182 L40.7623188,4.31581818 L51.865942,4.31581818" id="Fill-1" fill="#DB322A" sketch:type="MSShapeGroup"></path>
                <path d="M38.0181159,37.352 C37.9914855,37.3812727 37.9623188,37.4029091 37.9369565,37.4321818 C35.4527174,40.2423636 31.8461957,42.0343636 27.8148551,42.0572727 C20.2746377,42.1005455 14.1318841,36.008 14.0862319,28.4441818 C14.0634058,24.3943636 15.8057971,20.7518182 18.5766304,18.228 C18.6019928,18.2012727 18.6235507,18.1732727 18.6476449,18.144 L34.6728261,1.87218182 C32.4028986,1.274 30.0277174,0.958363636 27.5701087,0.972363636 C12.4947464,1.064 0.353804348,13.398 0.440036232,28.5256364 C0.528804348,43.6507273 12.8181159,55.8409091 27.8922101,55.7505455 C42.9675725,55.6627273 55.113587,43.3249091 55.0210145,28.1998182 C55.0083333,25.7358182 54.6634058,23.3494545 54.0407609,21.0827273 L38.0181159,37.352" id="Fill-2" fill="#FFFFFF" sketch:type="MSShapeGroup"></path>
                <path d="M85.1780797,12.74 L85.1780797,45.1843636 L74.8023551,45.1843636 L74.8023551,12.74 L63.3297101,12.74 L63.3297101,4.30945455 L96.6481884,4.30945455 L96.6481884,12.74 L85.1780797,12.74" id="Fill-3" fill="#FFFFFF" sketch:type="MSShapeGroup"></path>
                <path d="M168.24221,34.3623636 C167.58913,34.9376364 166.738225,35.4314545 165.546196,36.0627273 C164.090399,36.8327273 162.388587,37.2170909 160.440761,37.2170909 C158.757971,37.2170909 157.208333,36.9103636 155.794384,36.2930909 C154.377899,35.6770909 153.163043,34.8218182 152.149819,33.7234545 C151.137862,32.6276364 150.342754,31.3103636 149.768297,29.7690909 C149.196377,28.2303636 148.909783,26.5350909 148.909783,24.6909091 C148.909783,22.8798182 149.196377,21.2163636 149.768297,19.6954545 C150.342754,18.1732727 151.149275,16.8585455 152.180254,15.7410909 C153.211232,14.6249091 154.443841,13.7492727 155.880616,13.1129091 C157.312319,12.4790909 158.892391,12.1634545 160.611957,12.1634545 C162.181884,12.1634545 163.708696,12.4701818 165.202536,13.0874545 C166.509964,13.6258182 167.357065,14.2049091 168.24221,14.8043636 L174.622101,8.34145455 C173.03442,6.80527273 171.071377,5.60509091 168.727899,4.74345455 C165.954529,3.72527273 163.135507,3.21490909 160.265761,3.21490909 C157.17029,3.21490909 154.284058,3.71509091 151.607065,4.71418182 C148.927536,5.71709091 146.595471,7.14890909 144.608333,9.016 C142.617391,10.8830909 141.056341,13.1434545 139.928986,15.7996364 C138.805435,18.4532727 138.238587,21.4187273 138.238587,24.6909091 C138.238587,27.8841818 138.796558,30.8101818 139.902355,33.4638182 C141.00942,36.1212727 142.543841,38.402 144.492935,40.3034545 C146.442029,42.2087273 148.744928,43.6812727 151.404167,44.7210909 C154.059601,45.7621818 156.958514,46.2827273 160.094565,46.2827273 C163.5375,46.2827273 166.577174,45.6743636 169.216123,44.4627273 C171.294565,43.5056364 173.111775,42.28 174.667754,40.7858182 L168.24221,34.3623636" id="Fill-4" fill="#FFFFFF" sketch:type="MSShapeGroup"></path>
                <path d="M121.890036,24.7112727 L142.031522,4.31072727 L129.270471,4.31072727 L111.496558,22.1530909 L111.496558,4.31072727 L101.120833,4.31072727 L101.120833,45.1856364 L111.496558,45.1856364 L111.496558,27.2490909 L129.616667,45.1130909 L142.378986,45.1130909 L121.890036,24.7112727" id="Fill-5" fill="#FFFFFF" sketch:type="MSShapeGroup"></path>
                <path d="M63.2967391,49.812 L64.8197464,49.812 L64.8197464,55.7301818 L63.2967391,55.7301818 L63.2967391,49.812 Z" id="Fill-6" fill="#FFFFFF" sketch:type="MSShapeGroup"></path>
                <path d="M70.9967391,55.7289091 L68.5036232,52.3052727 L68.5036232,55.7289091 L66.9831522,55.7289091 L66.9831522,49.8107273 L68.5467391,49.8107273 L70.9333333,53.0676364 L70.9333333,49.8107273 L72.4652174,49.8107273 L72.4652174,55.7289091 L70.9967391,55.7289091" id="Fill-7" fill="#FFFFFF" sketch:type="MSShapeGroup"></path>
                <path d="M78.7538043,52.7634545 C78.7538043,51.8547273 78.2059783,51.1432727 77.1293478,51.1432727 L76.1617754,51.1432727 L76.1617754,54.3963636 L77.1192029,54.3963636 C78.1539855,54.3963636 78.7538043,53.6441818 78.7538043,52.7634545 M74.6438406,55.7289091 L74.6438406,49.8107273 L77.1192029,49.8107273 C78.9744565,49.8107273 80.3085145,50.9294545 80.3085145,52.7634545 C80.3085145,54.6025455 78.9744565,55.7289091 77.1293478,55.7289091 L74.6438406,55.7289091" id="Fill-8" fill="#FFFFFF" sketch:type="MSShapeGroup"></path>
                <path d="M82.1269928,53.3336364 L82.1269928,49.812 L83.6690217,49.812 L83.6690217,53.2827273 C83.6690217,53.9827273 84.0862319,54.4892727 84.9193841,54.4892727 C85.7347826,54.4892727 86.154529,53.9827273 86.154529,53.2827273 L86.154529,49.812 L87.6940217,49.812 L87.6940217,53.3272727 C87.6940217,54.7972727 86.8025362,55.8370909 84.9193841,55.8370909 C83.0210145,55.8370909 82.1269928,54.7896364 82.1269928,53.3336364" id="Fill-9" fill="#FFFFFF" sketch:type="MSShapeGroup"></path>
                <path d="M89.3818841,54.8952727 L90.1896739,53.7523636 C90.6132246,54.1761818 91.2675725,54.5325455 92.0702899,54.5325455 C92.5927536,54.5325455 92.9123188,54.3276364 92.9123188,54.0438182 C92.9123188,53.2369091 89.5682971,53.8834545 89.5682971,51.604 C89.5682971,50.6125455 90.409058,49.7229091 91.9206522,49.7229091 C92.8641304,49.7229091 93.6871377,50.0067273 94.3148551,50.5489091 L93.4855072,51.6396364 C92.9884058,51.2310909 92.3429348,51.0287273 91.7608696,51.0287273 C91.3182971,51.0287273 91.1268116,51.2069091 91.1268116,51.4525455 C91.1268116,52.2072727 94.4556159,51.6574545 94.4556159,53.858 C94.4556159,55.0454545 93.5806159,55.8358182 92.0005435,55.8358182 C90.8059783,55.8358182 89.9753623,55.4641818 89.3818841,54.8952727" id="Fill-10" fill="#FFFFFF" sketch:type="MSShapeGroup"></path>
                <path d="M97.5269928,55.7289091 L97.5269928,51.1432727 L95.8771739,51.1432727 L95.8771739,49.8107273 L100.69221,49.8107273 L100.69221,51.1432727 L99.0474638,51.1432727 L99.0474638,55.7289091 L97.5269928,55.7289091" id="Fill-11" fill="#FFFFFF" sketch:type="MSShapeGroup"></path>
                <path d="M105.806522,51.7745455 C105.806522,51.3723636 105.471739,51.1432727 105.076087,51.1432727 L103.870109,51.1432727 L103.870109,52.4121818 L105.076087,52.4121818 C105.471739,52.4121818 105.806522,52.1894545 105.806522,51.7745455 M105.640399,55.7289091 L104.652536,53.7421818 L103.870109,53.7421818 L103.870109,55.7289091 L102.353442,55.7289091 L102.353442,49.8107273 L105.301812,49.8107273 C106.611775,49.8107273 107.356159,50.6812727 107.356159,51.7821818 C107.356159,52.8130909 106.728442,53.3578182 106.179348,53.5538182 L107.378986,55.7289091 L105.640399,55.7289091" id="Fill-12" fill="#FFFFFF" sketch:type="MSShapeGroup"></path>
                <path d="M109.291304,49.812 L110.807971,49.812 L110.807971,55.7301818 L109.291304,55.7301818 L109.291304,49.812 Z" id="Fill-13" fill="#FFFFFF" sketch:type="MSShapeGroup"></path>
                <path d="M115.494928,51.3189091 L114.742935,53.5461818 L116.243116,53.5461818 L115.494928,51.3189091 L115.494928,51.3189091 Z M116.951993,55.7289091 L116.660326,54.8774545 L114.340942,54.8774545 L114.042935,55.7289091 L112.320833,55.7289091 L114.5375,49.8107273 L116.448551,49.8107273 L118.675362,55.7289091 L116.951993,55.7289091 L116.951993,55.7289091 Z" id="Fill-14" fill="#FFFFFF" sketch:type="MSShapeGroup"></path>
                <path d="M120.199638,55.7289091 L120.199638,49.8107273 L121.717572,49.8107273 L121.717572,54.3963636 L124.087681,54.3963636 L124.087681,55.7289091 L120.199638,55.7289091" id="Fill-15" fill="#FFFFFF" sketch:type="MSShapeGroup"></path>
                <path d="M133.317029,55.7289091 L133.317029,53.3514545 L130.872101,53.3514545 L130.872101,55.7289091 L129.346558,55.7289091 L129.346558,49.8107273 L130.872101,49.8107273 L130.872101,52.0214545 L133.317029,52.0214545 L133.317029,49.8107273 L134.840036,49.8107273 L134.840036,55.7289091 L133.317029,55.7289091" id="Fill-16" fill="#FFFFFF" sketch:type="MSShapeGroup"></path>
                <path d="M141.445652,52.7761818 C141.445652,51.8101818 140.816667,51.0630909 139.846558,51.0630909 C138.867572,51.0630909 138.238587,51.8101818 138.238587,52.7761818 C138.238587,53.7332727 138.867572,54.4892727 139.846558,54.4892727 C140.816667,54.4892727 141.445652,53.7332727 141.445652,52.7761818 M136.687681,52.7761818 C136.687681,50.9765455 138.042029,49.7152727 139.846558,49.7152727 C141.646014,49.7152727 142.992754,50.9765455 142.992754,52.7761818 C142.992754,54.5758182 141.646014,55.8370909 139.846558,55.8370909 C138.042029,55.8370909 136.687681,54.5758182 136.687681,52.7761818" id="Fill-17" fill="#FFFFFF" sketch:type="MSShapeGroup"></path>
                <path d="M144.855616,55.7289091 L144.855616,49.8107273 L146.374819,49.8107273 L146.374819,54.3963636 L148.742391,54.3963636 L148.742391,55.7289091 L144.855616,55.7289091" id="Fill-18" fill="#FFFFFF" sketch:type="MSShapeGroup"></path>
                <path d="M154.541486,52.7634545 C154.541486,51.8547273 153.992391,51.1432727 152.913225,51.1432727 L151.949457,51.1432727 L151.949457,54.3963636 L152.90308,54.3963636 C153.942935,54.3963636 154.541486,53.6441818 154.541486,52.7634545 M150.430254,55.7289091 L150.430254,49.8107273 L152.90308,49.8107273 C154.759601,49.8107273 156.097464,50.9294545 156.097464,52.7634545 C156.097464,54.6025455 154.759601,55.7289091 152.913225,55.7289091 L150.430254,55.7289091" id="Fill-19" fill="#FFFFFF" sketch:type="MSShapeGroup"></path>
                <path d="M157.959058,49.812 L159.482065,49.812 L159.482065,55.7301818 L157.959058,55.7301818 L157.959058,49.812 Z" id="Fill-20" fill="#FFFFFF" sketch:type="MSShapeGroup"></path>
                <path d="M165.661594,55.7289091 L163.168478,52.3052727 L163.168478,55.7289091 L161.645471,55.7289091 L161.645471,49.8107273 L163.212862,49.8107273 L165.594384,53.0676364 L165.594384,49.8107273 L167.127536,49.8107273 L167.127536,55.7289091 L165.661594,55.7289091" id="Fill-21" fill="#FFFFFF" sketch:type="MSShapeGroup"></path>
                <path d="M168.98279,52.7761818 C168.98279,50.8963636 170.413225,49.7152727 172.174638,49.7152727 C173.487138,49.7152727 174.283514,50.4152727 174.69058,51.1521818 L173.418659,51.8190909 C173.196739,51.4270909 172.74529,51.0630909 172.174638,51.0630909 C171.209601,51.0630909 170.527355,51.8101818 170.527355,52.7761818 C170.527355,53.7421818 171.209601,54.4892727 172.174638,54.4892727 C172.607065,54.4892727 173.04837,54.3110909 173.258877,54.1316364 L173.258877,53.6721818 L171.933696,53.6721818 L171.933696,52.332 L174.780616,52.332 L174.780616,54.6814545 C174.144022,55.384 173.284239,55.8370909 172.174638,55.8370909 C170.413225,55.8370909 168.98279,54.656 168.98279,52.7761818" id="Fill-22" fill="#FFFFFF" sketch:type="MSShapeGroup"></path>
            </g>
        </g>
    </g>
</svg>