<?xml version="1.0" encoding="UTF-8" standalone="no"?>
<svg width="177px" height="56px" viewBox="0 0 177 56" version="1.1" xmlns="http://www.w3.org/2000/svg" xmlns:xlink="http://www.w3.org/1999/xlink" xmlns:sketch="http://www.bohemiancoding.com/sketch/ns">
    <!-- Generator: Sketch 3.0.4 (8053) - http://www.bohemiancoding.com/sketch -->
    <title>logo</title>
    <desc>Created with Sketch.</desc>
    <defs></defs>
    <g id="Page-1" stroke="none" stroke-width="1" fill="none" fill-rule="evenodd" sketch:type="MSPage">
        <g id="logo" sketch:type="MSLayerGroup">
            <path d="M52.2033877,3.39535 L52.2033877,14.23415 L33.8115746,32.49365 C32.4089463,33.9052 30.4647614,34.7851 28.3122584,34.7977 C24.0069006,34.82395 20.4957555,31.3712 20.4700676,27.08895 C20.4577515,24.948 21.3184712,23.00445 22.7218032,21.5929 L40.9517475,3.39535 L52.2033877,3.39535" id="Fill-1" fill="#DB322A" sketch:type="MSShapeGroup"></path>
            <path d="M38.1725308,36.57605 C38.1457873,36.60335 38.1148211,36.6268 38.0884294,36.6541 C35.5724254,39.4758 31.9194692,41.2748 27.8298191,41.29965 C20.1934831,41.3441 13.9657575,35.22365 13.9207157,27.6283 C13.8967873,23.5599 15.6608052,19.9045 18.4688767,17.3705 C18.4956203,17.34285 18.518493,17.3124 18.5452366,17.28545 L34.7824354,0.94325 C32.4835467,0.34405 30.0724056,0.0259 27.583497,0.04025 C12.310825,0.1309 0.00246322068,12.51845 0.093250497,27.7095 C0.184037773,42.8995 12.6384334,55.1425 27.9114573,55.0515 C43.184833,54.9619 55.4921392,42.57365 55.4020557,27.3826 C55.3872763,24.9074 55.0385547,22.5127 54.408674,20.23525 L38.1725308,36.57605" id="Fill-2" fill="#FFFFFF" sketch:type="MSShapeGroup"></path>
            <path d="M66.9834155,55.04345 L66.9834155,51.42095 L65.0321928,51.42095 L65.0321928,55.04345 L63.8202883,55.04345 L63.8202883,50.36955 L68.1949682,50.36955 L68.1949682,55.04345 L66.9834155,55.04345" id="Fill-3" fill="#FFFFFF" sketch:type="MSShapeGroup"></path>
            <path d="M69.5873917,55.04345 L69.5873917,50.36955 L71.9401193,50.36955 C72.996841,50.36955 73.5746421,51.07725 73.5746421,51.9253 C73.5746421,52.76635 72.996841,53.4737 71.9401193,53.4737 L70.7989443,53.4737 L70.7989443,55.04345 L69.5873917,55.04345 L69.5873917,55.04345 Z M72.3419761,51.9253 C72.3419761,51.60295 72.10234,51.42095 71.7782505,51.42095 L70.7989443,51.42095 L70.7989443,52.42265 L71.7782505,52.42265 C72.10234,52.42265 72.3419761,52.24065 72.3419761,51.9253 L72.3419761,51.9253 Z" id="Fill-4" fill="#FFFFFF" sketch:type="MSShapeGroup"></path>
            <path d="M74.4709026,52.71035 C74.4709026,51.2876 75.5487376,50.29255 76.9858509,50.29255 C78.4229642,50.29255 79.4937614,51.2876 79.4937614,52.71035 C79.4937614,54.1324 78.4229642,55.12745 76.9858509,55.12745 C75.5487376,55.12745 74.4709026,54.1324 74.4709026,52.71035 L74.4709026,52.71035 Z M78.2607435,52.71035 C78.2607435,51.9463 77.7607097,51.3576 76.9858509,51.3576 C76.2039543,51.3576 75.7035686,51.9463 75.7035686,52.71035 C75.7035686,53.46705 76.2039543,54.0624 76.9858509,54.0624 C77.7607097,54.0624 78.2607435,53.46705 78.2607435,52.71035 L78.2607435,52.71035 Z" id="Fill-5" fill="#FFFFFF" sketch:type="MSShapeGroup"></path>
            <path d="M84.7548489,55.04345 L84.7548489,52.0023 L83.5644095,55.04345 L83.028835,55.04345 L81.8454334,52.0023 L81.8454334,55.04345 L80.6338807,55.04345 L80.6338807,50.36955 L82.3173161,50.36955 L83.2966223,52.90635 L84.2829662,50.36955 L85.9667535,50.36955 L85.9667535,55.04345 L84.7548489,55.04345" id="Fill-6" fill="#FFFFFF" sketch:type="MSShapeGroup"></path>
            <path d="M88.5763598,50.36955 L88.5763598,51.93895 L89.7175348,51.93895 C90.7742565,51.93895 91.3517058,52.647 91.3517058,53.4877 C91.3517058,54.33575 90.7742565,55.04345 89.7175348,55.04345 L87.3644553,55.04345 L87.3644553,50.36955 L88.5763598,50.36955 L88.5763598,50.36955 Z M88.5763598,52.99035 L88.5763598,53.9924 L89.555666,53.9924 C89.8794036,53.9924 90.1193917,53.81005 90.1193917,53.4877 C90.1193917,53.17235 89.8794036,52.99035 89.555666,52.99035 L88.5763598,52.99035 L88.5763598,52.99035 Z M91.6972604,50.36955 L92.9088131,50.36955 L92.9088131,55.04345 L91.6972604,55.04345 L91.6972604,50.36955 Z" id="Fill-7" fill="#FFFFFF" sketch:type="MSShapeGroup"></path>
            <path d="M100.626435,50.36955 L100.626435,55.04345 L94.3072187,55.04345 L94.3072187,50.36955 L95.5184195,50.36955 L95.5184195,53.9924 L96.8643936,53.9924 L96.8643936,50.36955 L98.0759463,50.36955 L98.0759463,53.9924 L99.4148827,53.9924 L99.4148827,50.36955 L100.626435,50.36955" id="Fill-8" fill="#FFFFFF" sketch:type="MSShapeGroup"></path>
            <path d="M101.693714,54.0624 C102.130056,54.0624 102.411918,53.8034 102.545988,52.73835 L102.827851,50.36955 L106.328791,50.36955 L106.328791,55.04345 L105.117239,55.04345 L105.117239,51.42095 L103.919761,51.42095 L103.750855,52.829 C103.525294,54.7211 102.721932,55.12745 101.693714,55.12745 L101.693714,54.0624" id="Fill-9" fill="#FFFFFF" sketch:type="MSShapeGroup"></path>
            <path d="M107.723326,55.04345 L107.723326,50.36955 L111.167964,50.36955 L111.167964,51.42095 L108.934879,51.42095 L108.934879,52.14965 L111.118348,52.14965 L111.118348,53.20035 L108.934879,53.20035 L108.934879,53.9924 L111.167964,53.9924 L111.167964,55.04345 L107.723326,55.04345" id="Fill-10" fill="#FFFFFF" sketch:type="MSShapeGroup"></path>
            <path d="M115.635895,55.04345 L115.635895,53.16535 L113.683968,53.16535 L113.683968,55.04345 L112.472416,55.04345 L112.472416,50.36955 L113.683968,50.36955 L113.683968,52.1143 L115.635895,52.1143 L115.635895,50.36955 L116.847799,50.36955 L116.847799,55.04345 L115.635895,55.04345" id="Fill-11" fill="#FFFFFF" sketch:type="MSShapeGroup"></path>
            <path d="M121.405109,55.04345 L121.405109,53.16535 L119.453183,53.16535 L119.453183,55.04345 L118.24163,55.04345 L118.24163,50.36955 L119.453183,50.36955 L119.453183,52.1143 L121.405109,52.1143 L121.405109,50.36955 L122.616662,50.36955 L122.616662,55.04345 L121.405109,55.04345" id="Fill-12" fill="#FFFFFF" sketch:type="MSShapeGroup"></path>
            <path d="M125.22275,50.36955 L125.22275,51.93895 L126.363924,51.93895 C127.420998,51.93895 127.998095,52.647 127.998095,53.4877 C127.998095,54.33575 127.420998,55.04345 126.363924,55.04345 L124.011197,55.04345 L124.011197,50.36955 L125.22275,50.36955 L125.22275,50.36955 Z M125.22275,52.99035 L125.22275,53.9924 L126.202408,53.9924 C126.525793,53.9924 126.765781,53.81005 126.765781,53.4877 C126.765781,53.17235 126.525793,52.99035 126.202408,52.99035 L125.22275,52.99035 L125.22275,52.99035 Z M128.344002,50.36955 L129.555555,50.36955 L129.555555,55.04345 L128.344002,55.04345 L128.344002,50.36955 Z" id="Fill-13" fill="#FFFFFF" sketch:type="MSShapeGroup"></path>
            <path d="M130.953608,55.04345 L130.953608,50.36955 L132.165161,50.36955 L132.165161,53.12335 L134.066767,50.36955 L135.32125,50.36955 L135.32125,55.04345 L134.10266,55.04345 L134.10266,52.15665 L132.122583,55.04345 L130.953608,55.04345 L130.953608,55.04345 Z M133.137078,50.17355 C132.637396,50.17355 132.186274,49.93555 131.897022,49.55685 L132.362219,49.17885 C132.538163,49.4165 132.798913,49.58485 133.137078,49.58485 C133.461167,49.58485 133.728602,49.43785 133.90525,49.17885 L134.370095,49.55685 C134.088233,49.93555 133.644149,50.17355 133.137078,50.17355 L133.137078,50.17355 Z" id="Fill-14" fill="#FFFFFF" sketch:type="MSShapeGroup"></path>
            <path d="M142.150002,55.04345 L141.128117,53.4737 L140.106584,55.04345 L138.669471,55.04345 L140.31068,52.647 L138.77539,50.36955 L140.205465,50.36955 L141.128117,51.8343 L142.037398,50.36955 L143.474511,50.36955 L141.945203,52.63965 L143.579374,55.04345 L142.150002,55.04345" id="Fill-15" fill="#FFFFFF" sketch:type="MSShapeGroup"></path>
            <path d="M144.012549,52.71035 C144.012549,51.2876 145.090032,50.29255 146.527145,50.29255 C147.964258,50.29255 149.035056,51.2876 149.035056,52.71035 C149.035056,54.1324 147.964258,55.12745 146.527145,55.12745 C145.090032,55.12745 144.012549,54.1324 144.012549,52.71035 L144.012549,52.71035 Z M147.802038,52.71035 C147.802038,51.9463 147.302708,51.3576 146.527145,51.3576 C145.745249,51.3576 145.245567,51.9463 145.245567,52.71035 C145.245567,53.46705 145.745249,54.0624 146.527145,54.0624 C147.302708,54.0624 147.802038,53.46705 147.802038,52.71035 L147.802038,52.71035 Z" id="Fill-16" fill="#FFFFFF" sketch:type="MSShapeGroup"></path>
            <path d="M149.827509,54.0624 C150.263851,54.0624 150.545714,53.8034 150.679783,52.73835 L150.961646,50.36955 L154.462586,50.36955 L154.462586,55.04345 L153.251034,55.04345 L153.251034,51.42095 L152.053557,51.42095 L151.88465,52.829 C151.659089,54.7211 150.855728,55.12745 149.827509,55.12745 L149.827509,54.0624" id="Fill-17" fill="#FFFFFF" sketch:type="MSShapeGroup"></path>
            <path d="M155.522475,54.0624 C155.973245,53.9924 156.241384,53.8034 156.37475,52.73835 L156.656612,50.36955 L160.158256,50.36955 L160.158256,53.9924 L160.580875,53.9924 L160.580875,55.9055 L159.361581,55.9055 L159.361581,55.04345 L156.734028,55.04345 L156.734028,55.9055 L155.522475,55.9055 L155.522475,54.0624 L155.522475,54.0624 Z M157.065507,53.9924 L158.946352,53.9924 L158.946352,51.42095 L157.748523,51.42095 L157.579264,52.829 C157.516276,53.3547 157.33259,53.72605 157.065507,53.9924 L157.065507,53.9924 Z" id="Fill-18" fill="#FFFFFF" sketch:type="MSShapeGroup"></path>
            <path d="M161.71466,55.04345 L161.71466,50.36955 L162.926565,50.36955 L162.926565,53.12335 L164.828875,50.36955 L166.082654,50.36955 L166.082654,55.04345 L164.864064,55.04345 L164.864064,52.15665 L162.88469,55.04345 L161.71466,55.04345" id="Fill-19" fill="#FFFFFF" sketch:type="MSShapeGroup"></path>
            <path d="M170.639964,55.04345 L170.639964,53.16535 L168.688742,53.16535 L168.688742,55.04345 L167.477189,55.04345 L167.477189,50.36955 L168.688742,50.36955 L168.688742,52.1143 L170.639964,52.1143 L170.639964,50.36955 L171.851517,50.36955 L171.851517,55.04345 L170.639964,55.04345" id="Fill-20" fill="#FFFFFF" sketch:type="MSShapeGroup"></path>
            <path d="M173.246052,55.04345 L173.246052,50.36955 L176.691394,50.36955 L176.691394,51.42095 L174.457604,51.42095 L174.457604,55.04345 L173.246052,55.04345" id="Fill-21" fill="#FFFFFF" sketch:type="MSShapeGroup"></path>
            <path d="M85.9590119,11.85695 L85.9590119,44.4388 L75.4459861,44.4388 L75.4459861,11.85695 L63.8202883,11.85695 L63.8202883,3.3929 L97.5847097,3.3929 L97.5847097,11.85695 L85.9590119,11.85695" id="Fill-22" fill="#FFFFFF" sketch:type="MSShapeGroup"></path>
            <path d="M170.130781,33.57235 C169.469934,34.1509 168.606048,34.6458 167.397662,35.2793 C165.923952,36.0528 164.200402,36.43885 162.223843,36.43885 C160.51859,36.43885 158.949167,36.1298 157.515924,35.511 C156.081274,34.89255 154.85072,34.0326 153.824612,32.93115 C152.797097,31.82935 151.993032,30.50635 151.411712,28.96005 C150.83004,27.41445 150.540435,25.7131 150.540435,23.8581 C150.540435,22.04195 150.83004,20.3707 151.411712,18.8433 C151.993032,17.3173 152.807302,15.99325 153.853467,14.8722 C154.898928,13.7515 156.149893,12.8716 157.602841,12.23425 C159.055789,11.59655 160.654771,11.2777 162.399083,11.2777 C163.987509,11.2777 165.537579,11.5871 167.049644,12.2052 C168.375561,12.74805 169.23241,13.32695 170.130781,13.93175 L176.597439,7.44065 C174.985085,5.8996 172.996563,4.6928 170.623425,3.8276 C167.813594,2.8042 164.955907,2.29145 162.049306,2.29145 C158.910811,2.29145 155.983801,2.79405 153.272499,3.7989 C150.559437,4.8041 148.194746,6.2433 146.180535,8.11755 C144.165268,9.99285 142.585288,12.26295 141.442706,14.9296 C140.299419,17.5966 139.727952,20.57335 139.727952,23.8581 C139.727952,27.0669 140.289215,30.0034 141.413147,32.6704 C142.53708,35.33705 144.087853,37.6271 146.064412,39.5402 C148.040266,41.454 150.374696,42.9317 153.068404,43.97575 C155.762111,45.01945 158.697215,45.5406 161.875121,45.5406 C165.36269,45.5406 168.444179,44.9323 171.117829,43.7143 C173.22529,42.7553 175.062853,41.52155 176.640018,40.02215 L170.130781,33.57235" id="Fill-23" fill="#FFFFFF" sketch:type="MSShapeGroup"></path>
            <path d="M123.158922,23.8798 L143.570577,3.3929 L130.638316,3.3929 L112.626191,21.3094 L112.626191,3.3929 L102.113517,3.3929 L102.113517,44.4388 L112.626191,44.4388 L112.626191,26.42815 L130.989149,44.366 L143.92141,44.366 L123.158922,23.8798" id="Fill-24" fill="#FFFFFF" sketch:type="MSShapeGroup"></path>
        </g>
    </g>
</svg>